ISO-10303-21;
HEADER;
FILE_DESCRIPTION(('FreeCAD Model'),'2;1');
FILE_NAME('Open CASCADE Shape Model','2026-08-15T01:17:22',('FreeCAD'),(
    'FreeCAD'),'Open CASCADE STEP processor 7.8','FreeCAD','Unknown');
FILE_SCHEMA(('AUTOMOTIVE_DESIGN { 1 0 10303 214 1 1 1 1 }'));
ENDSEC;
DATA;
#1 = APPLICATION_PROTOCOL_DEFINITION('international standard',
  'automotive_design',2000,#2);
#2 = APPLICATION_CONTEXT(
  'core data for automotive mechanical design processes');
#3 = SHAPE_DEFINITION_REPRESENTATION(#4,#10);
#4 = PRODUCT_DEFINITION_SHAPE('','',#5);
#5 = PRODUCT_DEFINITION('design','',#6,#9);
#6 = PRODUCT_DEFINITION_FORMATION('','',#7);
#7 = PRODUCT('Open CASCADE STEP translator 7.8 1',
  'Open CASCADE STEP translator 7.8 1','',(#8));
#8 = PRODUCT_CONTEXT('',#2,'mechanical');
#9 = PRODUCT_DEFINITION_CONTEXT('part definition',#2,'design');
#10 = SHAPE_REPRESENTATION('',(#11,#15,#1268,#1436,#1604,#1824,#1912),
  #2309);
#11 = AXIS2_PLACEMENT_3D('',#12,#13,#14);
#12 = CARTESIAN_POINT('',(0.,0.,0.));
#13 = DIRECTION('',(0.,0.,1.));
#14 = DIRECTION('',(1.,0.,-0.));
#15 = MANIFOLD_SOLID_BREP('',#16);
#16 = CLOSED_SHELL('',(#17,#59,#101,#143,#185,#227,#269,#311,#523,#541,
    #561,#671,#695,#712,#724,#741,#760,#782,#794,#806,#832,#844,#870,
    #882,#900,#920,#932,#944,#975,#999,#1023,#1040,#1052,#1083,#1107,
    #1131,#1148,#1160,#1191,#1215,#1239,#1256));
#17 = ADVANCED_FACE('',(#18),#54,.F.);
#18 = FACE_BOUND('',#19,.F.);
#19 = EDGE_LOOP('',(#20,#30,#39,#47));
#20 = ORIENTED_EDGE('',*,*,#21,.T.);
#21 = EDGE_CURVE('',#22,#24,#26,.T.);
#22 = VERTEX_POINT('',#23);
#23 = CARTESIAN_POINT('',(27.,17.,0.));
#24 = VERTEX_POINT('',#25);
#25 = CARTESIAN_POINT('',(27.,17.,1.2));
#26 = LINE('',#27,#28);
#27 = CARTESIAN_POINT('',(27.,17.,-0.8));
#28 = VECTOR('',#29,1.);
#29 = DIRECTION('',(0.,0.,1.));
#30 = ORIENTED_EDGE('',*,*,#31,.F.);
#31 = EDGE_CURVE('',#32,#24,#34,.T.);
#32 = VERTEX_POINT('',#33);
#33 = CARTESIAN_POINT('',(25.,17.,1.2));
#34 = CIRCLE('',#35,1.);
#35 = AXIS2_PLACEMENT_3D('',#36,#37,#38);
#36 = CARTESIAN_POINT('',(26.,17.,1.2));
#37 = DIRECTION('',(0.,0.,1.));
#38 = DIRECTION('',(1.,0.,0.));
#39 = ORIENTED_EDGE('',*,*,#40,.F.);
#40 = EDGE_CURVE('',#41,#32,#43,.T.);
#41 = VERTEX_POINT('',#42);
#42 = CARTESIAN_POINT('',(25.,17.,0.));
#43 = LINE('',#44,#45);
#44 = CARTESIAN_POINT('',(25.,17.,-0.8));
#45 = VECTOR('',#46,1.);
#46 = DIRECTION('',(0.,0.,1.));
#47 = ORIENTED_EDGE('',*,*,#48,.T.);
#48 = EDGE_CURVE('',#41,#22,#49,.T.);
#49 = CIRCLE('',#50,1.);
#50 = AXIS2_PLACEMENT_3D('',#51,#52,#53);
#51 = CARTESIAN_POINT('',(26.,17.,1.373900992974E-15));
#52 = DIRECTION('',(0.,0.,1.));
#53 = DIRECTION('',(1.,0.,0.));
#54 = CYLINDRICAL_SURFACE('',#55,1.);
#55 = AXIS2_PLACEMENT_3D('',#56,#57,#58);
#56 = CARTESIAN_POINT('',(26.,17.,-0.8));
#57 = DIRECTION('',(0.,0.,1.));
#58 = DIRECTION('',(1.,0.,0.));
#59 = ADVANCED_FACE('',(#60),#96,.F.);
#60 = FACE_BOUND('',#61,.F.);
#61 = EDGE_LOOP('',(#62,#72,#81,#89));
#62 = ORIENTED_EDGE('',*,*,#63,.T.);
#63 = EDGE_CURVE('',#64,#66,#68,.T.);
#64 = VERTEX_POINT('',#65);
#65 = CARTESIAN_POINT('',(27.,3.,0.));
#66 = VERTEX_POINT('',#67);
#67 = CARTESIAN_POINT('',(27.,3.,1.2));
#68 = LINE('',#69,#70);
#69 = CARTESIAN_POINT('',(27.,3.,-0.8));
#70 = VECTOR('',#71,1.);
#71 = DIRECTION('',(0.,0.,1.));
#72 = ORIENTED_EDGE('',*,*,#73,.F.);
#73 = EDGE_CURVE('',#74,#66,#76,.T.);
#74 = VERTEX_POINT('',#75);
#75 = CARTESIAN_POINT('',(25.,3.,1.2));
#76 = CIRCLE('',#77,1.);
#77 = AXIS2_PLACEMENT_3D('',#78,#79,#80);
#78 = CARTESIAN_POINT('',(26.,3.,1.2));
#79 = DIRECTION('',(0.,0.,1.));
#80 = DIRECTION('',(1.,0.,0.));
#81 = ORIENTED_EDGE('',*,*,#82,.F.);
#82 = EDGE_CURVE('',#83,#74,#85,.T.);
#83 = VERTEX_POINT('',#84);
#84 = CARTESIAN_POINT('',(25.,3.,0.));
#85 = LINE('',#86,#87);
#86 = CARTESIAN_POINT('',(25.,3.,-0.8));
#87 = VECTOR('',#88,1.);
#88 = DIRECTION('',(0.,0.,1.));
#89 = ORIENTED_EDGE('',*,*,#90,.T.);
#90 = EDGE_CURVE('',#83,#64,#91,.T.);
#91 = CIRCLE('',#92,1.);
#92 = AXIS2_PLACEMENT_3D('',#93,#94,#95);
#93 = CARTESIAN_POINT('',(26.,3.,1.373900992974E-15));
#94 = DIRECTION('',(0.,0.,1.));
#95 = DIRECTION('',(1.,0.,0.));
#96 = CYLINDRICAL_SURFACE('',#97,1.);
#97 = AXIS2_PLACEMENT_3D('',#98,#99,#100);
#98 = CARTESIAN_POINT('',(26.,3.,-0.8));
#99 = DIRECTION('',(0.,0.,1.));
#100 = DIRECTION('',(1.,0.,0.));
#101 = ADVANCED_FACE('',(#102),#138,.T.);
#102 = FACE_BOUND('',#103,.T.);
#103 = EDGE_LOOP('',(#104,#115,#123,#132));
#104 = ORIENTED_EDGE('',*,*,#105,.T.);
#105 = EDGE_CURVE('',#106,#108,#110,.T.);
#106 = VERTEX_POINT('',#107);
#107 = CARTESIAN_POINT('',(28.,3.,1.1));
#108 = VERTEX_POINT('',#109);
#109 = CARTESIAN_POINT('',(24.,3.,1.1));
#110 = CIRCLE('',#111,2.);
#111 = AXIS2_PLACEMENT_3D('',#112,#113,#114);
#112 = CARTESIAN_POINT('',(26.,3.,1.1));
#113 = DIRECTION('',(0.,0.,1.));
#114 = DIRECTION('',(1.,0.,0.));
#115 = ORIENTED_EDGE('',*,*,#116,.T.);
#116 = EDGE_CURVE('',#108,#117,#119,.T.);
#117 = VERTEX_POINT('',#118);
#118 = CARTESIAN_POINT('',(24.,3.,1.2));
#119 = LINE('',#120,#121);
#120 = CARTESIAN_POINT('',(24.,3.,1.373900992974E-15));
#121 = VECTOR('',#122,1.);
#122 = DIRECTION('',(0.,0.,1.));
#123 = ORIENTED_EDGE('',*,*,#124,.F.);
#124 = EDGE_CURVE('',#125,#117,#127,.T.);
#125 = VERTEX_POINT('',#126);
#126 = CARTESIAN_POINT('',(28.,3.,1.2));
#127 = CIRCLE('',#128,2.);
#128 = AXIS2_PLACEMENT_3D('',#129,#130,#131);
#129 = CARTESIAN_POINT('',(26.,3.,1.2));
#130 = DIRECTION('',(0.,0.,1.));
#131 = DIRECTION('',(1.,0.,0.));
#132 = ORIENTED_EDGE('',*,*,#133,.F.);
#133 = EDGE_CURVE('',#106,#125,#134,.T.);
#134 = LINE('',#135,#136);
#135 = CARTESIAN_POINT('',(28.,3.,1.373900992974E-15));
#136 = VECTOR('',#137,1.);
#137 = DIRECTION('',(0.,0.,1.));
#138 = CYLINDRICAL_SURFACE('',#139,2.);
#139 = AXIS2_PLACEMENT_3D('',#140,#141,#142);
#140 = CARTESIAN_POINT('',(26.,3.,1.373900992974E-15));
#141 = DIRECTION('',(0.,0.,1.));
#142 = DIRECTION('',(1.,0.,0.));
#143 = ADVANCED_FACE('',(#144),#180,.T.);
#144 = FACE_BOUND('',#145,.T.);
#145 = EDGE_LOOP('',(#146,#157,#165,#174));
#146 = ORIENTED_EDGE('',*,*,#147,.T.);
#147 = EDGE_CURVE('',#148,#150,#152,.T.);
#148 = VERTEX_POINT('',#149);
#149 = CARTESIAN_POINT('',(28.,3.,0.));
#150 = VERTEX_POINT('',#151);
#151 = CARTESIAN_POINT('',(24.,3.,0.));
#152 = CIRCLE('',#153,2.);
#153 = AXIS2_PLACEMENT_3D('',#154,#155,#156);
#154 = CARTESIAN_POINT('',(26.,3.,1.373900992974E-15));
#155 = DIRECTION('',(0.,0.,1.));
#156 = DIRECTION('',(1.,0.,0.));
#157 = ORIENTED_EDGE('',*,*,#158,.T.);
#158 = EDGE_CURVE('',#150,#159,#161,.T.);
#159 = VERTEX_POINT('',#160);
#160 = CARTESIAN_POINT('',(24.,3.,0.1));
#161 = LINE('',#162,#163);
#162 = CARTESIAN_POINT('',(24.,3.,1.373900992974E-15));
#163 = VECTOR('',#164,1.);
#164 = DIRECTION('',(0.,0.,1.));
#165 = ORIENTED_EDGE('',*,*,#166,.F.);
#166 = EDGE_CURVE('',#167,#159,#169,.T.);
#167 = VERTEX_POINT('',#168);
#168 = CARTESIAN_POINT('',(28.,3.,0.1));
#169 = CIRCLE('',#170,2.);
#170 = AXIS2_PLACEMENT_3D('',#171,#172,#173);
#171 = CARTESIAN_POINT('',(26.,3.,0.1));
#172 = DIRECTION('',(0.,0.,1.));
#173 = DIRECTION('',(1.,0.,0.));
#174 = ORIENTED_EDGE('',*,*,#175,.F.);
#175 = EDGE_CURVE('',#148,#167,#176,.T.);
#176 = LINE('',#177,#178);
#177 = CARTESIAN_POINT('',(28.,3.,1.373900992974E-15));
#178 = VECTOR('',#179,1.);
#179 = DIRECTION('',(0.,0.,1.));
#180 = CYLINDRICAL_SURFACE('',#181,2.);
#181 = AXIS2_PLACEMENT_3D('',#182,#183,#184);
#182 = CARTESIAN_POINT('',(26.,3.,1.373900992974E-15));
#183 = DIRECTION('',(0.,0.,1.));
#184 = DIRECTION('',(1.,0.,0.));
#185 = ADVANCED_FACE('',(#186),#222,.T.);
#186 = FACE_BOUND('',#187,.T.);
#187 = EDGE_LOOP('',(#188,#199,#207,#216));
#188 = ORIENTED_EDGE('',*,*,#189,.T.);
#189 = EDGE_CURVE('',#190,#192,#194,.T.);
#190 = VERTEX_POINT('',#191);
#191 = CARTESIAN_POINT('',(28.,17.,0.));
#192 = VERTEX_POINT('',#193);
#193 = CARTESIAN_POINT('',(24.,17.,0.));
#194 = CIRCLE('',#195,2.);
#195 = AXIS2_PLACEMENT_3D('',#196,#197,#198);
#196 = CARTESIAN_POINT('',(26.,17.,1.373900992974E-15));
#197 = DIRECTION('',(0.,0.,1.));
#198 = DIRECTION('',(1.,0.,0.));
#199 = ORIENTED_EDGE('',*,*,#200,.T.);
#200 = EDGE_CURVE('',#192,#201,#203,.T.);
#201 = VERTEX_POINT('',#202);
#202 = CARTESIAN_POINT('',(24.,17.,0.1));
#203 = LINE('',#204,#205);
#204 = CARTESIAN_POINT('',(24.,17.,1.373900992974E-15));
#205 = VECTOR('',#206,1.);
#206 = DIRECTION('',(0.,0.,1.));
#207 = ORIENTED_EDGE('',*,*,#208,.F.);
#208 = EDGE_CURVE('',#209,#201,#211,.T.);
#209 = VERTEX_POINT('',#210);
#210 = CARTESIAN_POINT('',(28.,17.,0.1));
#211 = CIRCLE('',#212,2.);
#212 = AXIS2_PLACEMENT_3D('',#213,#214,#215);
#213 = CARTESIAN_POINT('',(26.,17.,0.1));
#214 = DIRECTION('',(0.,0.,1.));
#215 = DIRECTION('',(1.,0.,0.));
#216 = ORIENTED_EDGE('',*,*,#217,.F.);
#217 = EDGE_CURVE('',#190,#209,#218,.T.);
#218 = LINE('',#219,#220);
#219 = CARTESIAN_POINT('',(28.,17.,1.373900992974E-15));
#220 = VECTOR('',#221,1.);
#221 = DIRECTION('',(0.,0.,1.));
#222 = CYLINDRICAL_SURFACE('',#223,2.);
#223 = AXIS2_PLACEMENT_3D('',#224,#225,#226);
#224 = CARTESIAN_POINT('',(26.,17.,1.373900992974E-15));
#225 = DIRECTION('',(0.,0.,1.));
#226 = DIRECTION('',(1.,0.,0.));
#227 = ADVANCED_FACE('',(#228),#264,.T.);
#228 = FACE_BOUND('',#229,.T.);
#229 = EDGE_LOOP('',(#230,#241,#249,#258));
#230 = ORIENTED_EDGE('',*,*,#231,.F.);
#231 = EDGE_CURVE('',#232,#234,#236,.T.);
#232 = VERTEX_POINT('',#233);
#233 = CARTESIAN_POINT('',(0.,10.,1.1));
#234 = VERTEX_POINT('',#235);
#235 = CARTESIAN_POINT('',(10.,1.7763568394E-15,1.1));
#236 = CIRCLE('',#237,10.);
#237 = AXIS2_PLACEMENT_3D('',#238,#239,#240);
#238 = CARTESIAN_POINT('',(10.,10.,1.1));
#239 = DIRECTION('',(0.,0.,1.));
#240 = DIRECTION('',(1.,0.,0.));
#241 = ORIENTED_EDGE('',*,*,#242,.T.);
#242 = EDGE_CURVE('',#232,#243,#245,.T.);
#243 = VERTEX_POINT('',#244);
#244 = CARTESIAN_POINT('',(0.,10.,0.1));
#245 = LINE('',#246,#247);
#246 = CARTESIAN_POINT('',(0.,10.,1.1));
#247 = VECTOR('',#248,1.);
#248 = DIRECTION('',(-0.,-0.,-1.));
#249 = ORIENTED_EDGE('',*,*,#250,.T.);
#250 = EDGE_CURVE('',#243,#251,#253,.T.);
#251 = VERTEX_POINT('',#252);
#252 = CARTESIAN_POINT('',(10.,1.7763568394E-15,0.1));
#253 = CIRCLE('',#254,10.);
#254 = AXIS2_PLACEMENT_3D('',#255,#256,#257);
#255 = CARTESIAN_POINT('',(10.,10.,0.1));
#256 = DIRECTION('',(0.,0.,1.));
#257 = DIRECTION('',(1.,0.,0.));
#258 = ORIENTED_EDGE('',*,*,#259,.F.);
#259 = EDGE_CURVE('',#234,#251,#260,.T.);
#260 = LINE('',#261,#262);
#261 = CARTESIAN_POINT('',(10.,1.7763568394E-15,1.1));
#262 = VECTOR('',#263,1.);
#263 = DIRECTION('',(-0.,-0.,-1.));
#264 = CYLINDRICAL_SURFACE('',#265,10.);
#265 = AXIS2_PLACEMENT_3D('',#266,#267,#268);
#266 = CARTESIAN_POINT('',(10.,10.,1.1));
#267 = DIRECTION('',(-0.,-0.,-1.));
#268 = DIRECTION('',(-1.,0.,0.));
#269 = ADVANCED_FACE('',(#270),#306,.T.);
#270 = FACE_BOUND('',#271,.T.);
#271 = EDGE_LOOP('',(#272,#283,#291,#300));
#272 = ORIENTED_EDGE('',*,*,#273,.T.);
#273 = EDGE_CURVE('',#274,#276,#278,.T.);
#274 = VERTEX_POINT('',#275);
#275 = CARTESIAN_POINT('',(28.,17.,1.1));
#276 = VERTEX_POINT('',#277);
#277 = CARTESIAN_POINT('',(24.,17.,1.1));
#278 = CIRCLE('',#279,2.);
#279 = AXIS2_PLACEMENT_3D('',#280,#281,#282);
#280 = CARTESIAN_POINT('',(26.,17.,1.1));
#281 = DIRECTION('',(0.,0.,1.));
#282 = DIRECTION('',(1.,0.,0.));
#283 = ORIENTED_EDGE('',*,*,#284,.T.);
#284 = EDGE_CURVE('',#276,#285,#287,.T.);
#285 = VERTEX_POINT('',#286);
#286 = CARTESIAN_POINT('',(24.,17.,1.2));
#287 = LINE('',#288,#289);
#288 = CARTESIAN_POINT('',(24.,17.,1.373900992974E-15));
#289 = VECTOR('',#290,1.);
#290 = DIRECTION('',(0.,0.,1.));
#291 = ORIENTED_EDGE('',*,*,#292,.F.);
#292 = EDGE_CURVE('',#293,#285,#295,.T.);
#293 = VERTEX_POINT('',#294);
#294 = CARTESIAN_POINT('',(28.,17.,1.2));
#295 = CIRCLE('',#296,2.);
#296 = AXIS2_PLACEMENT_3D('',#297,#298,#299);
#297 = CARTESIAN_POINT('',(26.,17.,1.2));
#298 = DIRECTION('',(0.,0.,1.));
#299 = DIRECTION('',(1.,0.,0.));
#300 = ORIENTED_EDGE('',*,*,#301,.F.);
#301 = EDGE_CURVE('',#274,#293,#302,.T.);
#302 = LINE('',#303,#304);
#303 = CARTESIAN_POINT('',(28.,17.,1.373900992974E-15));
#304 = VECTOR('',#305,1.);
#305 = DIRECTION('',(0.,0.,1.));
#306 = CYLINDRICAL_SURFACE('',#307,2.);
#307 = AXIS2_PLACEMENT_3D('',#308,#309,#310);
#308 = CARTESIAN_POINT('',(26.,17.,1.373900992974E-15));
#309 = DIRECTION('',(0.,0.,1.));
#310 = DIRECTION('',(1.,0.,0.));
#311 = ADVANCED_FACE('',(#312,#322,#332,#416,#450,#484),#518,.T.);
#312 = FACE_BOUND('',#313,.T.);
#313 = EDGE_LOOP('',(#314,#321));
#314 = ORIENTED_EDGE('',*,*,#315,.F.);
#315 = EDGE_CURVE('',#108,#106,#316,.T.);
#316 = CIRCLE('',#317,2.);
#317 = AXIS2_PLACEMENT_3D('',#318,#319,#320);
#318 = CARTESIAN_POINT('',(26.,3.,1.1));
#319 = DIRECTION('',(0.,0.,1.));
#320 = DIRECTION('',(1.,0.,0.));
#321 = ORIENTED_EDGE('',*,*,#105,.F.);
#322 = FACE_BOUND('',#323,.T.);
#323 = EDGE_LOOP('',(#324,#331));
#324 = ORIENTED_EDGE('',*,*,#325,.F.);
#325 = EDGE_CURVE('',#276,#274,#326,.T.);
#326 = CIRCLE('',#327,2.);
#327 = AXIS2_PLACEMENT_3D('',#328,#329,#330);
#328 = CARTESIAN_POINT('',(26.,17.,1.1));
#329 = DIRECTION('',(0.,0.,1.));
#330 = DIRECTION('',(1.,0.,0.));
#331 = ORIENTED_EDGE('',*,*,#273,.F.);
#332 = FACE_BOUND('',#333,.T.);
#333 = EDGE_LOOP('',(#334,#343,#352,#361,#369,#378,#385,#394,#402,#409,
    #410));
#334 = ORIENTED_EDGE('',*,*,#335,.T.);
#335 = EDGE_CURVE('',#336,#106,#338,.T.);
#336 = VERTEX_POINT('',#337);
#337 = CARTESIAN_POINT('',(25.,1.7763568394E-15,1.1));
#338 = CIRCLE('',#339,3.);
#339 = AXIS2_PLACEMENT_3D('',#340,#341,#342);
#340 = CARTESIAN_POINT('',(25.,3.,1.1));
#341 = DIRECTION('',(0.,0.,1.));
#342 = DIRECTION('',(1.,0.,0.));
#343 = ORIENTED_EDGE('',*,*,#344,.T.);
#344 = EDGE_CURVE('',#106,#345,#347,.T.);
#345 = VERTEX_POINT('',#346);
#346 = CARTESIAN_POINT('',(26.5,5.598076211353,1.1));
#347 = CIRCLE('',#348,3.);
#348 = AXIS2_PLACEMENT_3D('',#349,#350,#351);
#349 = CARTESIAN_POINT('',(25.,3.,1.1));
#350 = DIRECTION('',(0.,0.,1.));
#351 = DIRECTION('',(1.,0.,0.));
#352 = ORIENTED_EDGE('',*,*,#353,.T.);
#353 = EDGE_CURVE('',#345,#354,#356,.T.);
#354 = VERTEX_POINT('',#355);
#355 = CARTESIAN_POINT('',(25.,8.196152422707,1.1));
#356 = CIRCLE('',#357,3.);
#357 = AXIS2_PLACEMENT_3D('',#358,#359,#360);
#358 = CARTESIAN_POINT('',(28.,8.196152422707,1.1));
#359 = DIRECTION('',(0.,0.,-1.));
#360 = DIRECTION('',(1.,1.807003620809E-15,0.));
#361 = ORIENTED_EDGE('',*,*,#362,.T.);
#362 = EDGE_CURVE('',#354,#363,#365,.T.);
#363 = VERTEX_POINT('',#364);
#364 = CARTESIAN_POINT('',(25.,11.803847577293,1.1));
#365 = LINE('',#366,#367);
#366 = CARTESIAN_POINT('',(25.,14.,1.1));
#367 = VECTOR('',#368,1.);
#368 = DIRECTION('',(-2.168404344971E-16,1.,0.));
#369 = ORIENTED_EDGE('',*,*,#370,.T.);
#370 = EDGE_CURVE('',#363,#371,#373,.T.);
#371 = VERTEX_POINT('',#372);
#372 = CARTESIAN_POINT('',(26.5,14.401923788647,1.1));
#373 = CIRCLE('',#374,3.);
#374 = AXIS2_PLACEMENT_3D('',#375,#376,#377);
#375 = CARTESIAN_POINT('',(28.,11.803847577293,1.1));
#376 = DIRECTION('',(0.,0.,-1.));
#377 = DIRECTION('',(1.,2.674365358798E-15,0.));
#378 = ORIENTED_EDGE('',*,*,#379,.T.);
#379 = EDGE_CURVE('',#371,#274,#380,.T.);
#380 = CIRCLE('',#381,3.);
#381 = AXIS2_PLACEMENT_3D('',#382,#383,#384);
#382 = CARTESIAN_POINT('',(25.,17.,1.1));
#383 = DIRECTION('',(0.,0.,1.));
#384 = DIRECTION('',(1.,0.,0.));
#385 = ORIENTED_EDGE('',*,*,#386,.T.);
#386 = EDGE_CURVE('',#274,#387,#389,.T.);
#387 = VERTEX_POINT('',#388);
#388 = CARTESIAN_POINT('',(25.,20.,1.1));
#389 = CIRCLE('',#390,3.);
#390 = AXIS2_PLACEMENT_3D('',#391,#392,#393);
#391 = CARTESIAN_POINT('',(25.,17.,1.1));
#392 = DIRECTION('',(0.,0.,1.));
#393 = DIRECTION('',(1.,0.,0.));
#394 = ORIENTED_EDGE('',*,*,#395,.T.);
#395 = EDGE_CURVE('',#387,#396,#398,.T.);
#396 = VERTEX_POINT('',#397);
#397 = CARTESIAN_POINT('',(10.,20.,1.1));
#398 = LINE('',#399,#400);
#399 = CARTESIAN_POINT('',(10.,20.,1.1));
#400 = VECTOR('',#401,1.);
#401 = DIRECTION('',(-1.,-0.,-0.));
#402 = ORIENTED_EDGE('',*,*,#403,.T.);
#403 = EDGE_CURVE('',#396,#232,#404,.T.);
#404 = CIRCLE('',#405,10.);
#405 = AXIS2_PLACEMENT_3D('',#406,#407,#408);
#406 = CARTESIAN_POINT('',(10.,10.,1.1));
#407 = DIRECTION('',(0.,0.,1.));
#408 = DIRECTION('',(1.,0.,0.));
#409 = ORIENTED_EDGE('',*,*,#231,.T.);
#410 = ORIENTED_EDGE('',*,*,#411,.T.);
#411 = EDGE_CURVE('',#234,#336,#412,.T.);
#412 = LINE('',#413,#414);
#413 = CARTESIAN_POINT('',(10.,1.7763568394E-15,1.1));
#414 = VECTOR('',#415,1.);
#415 = DIRECTION('',(1.,0.,0.));
#416 = FACE_BOUND('',#417,.T.);
#417 = EDGE_LOOP('',(#418,#428,#436,#444));
#418 = ORIENTED_EDGE('',*,*,#419,.F.);
#419 = EDGE_CURVE('',#420,#422,#424,.T.);
#420 = VERTEX_POINT('',#421);
#421 = CARTESIAN_POINT('',(23.5,13.,1.1));
#422 = VERTEX_POINT('',#423);
#423 = CARTESIAN_POINT('',(21.,13.,1.1));
#424 = LINE('',#425,#426);
#425 = CARTESIAN_POINT('',(21.,13.,1.1));
#426 = VECTOR('',#427,1.);
#427 = DIRECTION('',(-1.,-0.,-0.));
#428 = ORIENTED_EDGE('',*,*,#429,.F.);
#429 = EDGE_CURVE('',#430,#420,#432,.T.);
#430 = VERTEX_POINT('',#431);
#431 = CARTESIAN_POINT('',(23.5,11.,1.1));
#432 = LINE('',#433,#434);
#433 = CARTESIAN_POINT('',(23.5,13.,1.1));
#434 = VECTOR('',#435,1.);
#435 = DIRECTION('',(-8.673617379884E-16,1.,0.));
#436 = ORIENTED_EDGE('',*,*,#437,.F.);
#437 = EDGE_CURVE('',#438,#430,#440,.T.);
#438 = VERTEX_POINT('',#439);
#439 = CARTESIAN_POINT('',(21.,11.,1.1));
#440 = LINE('',#441,#442);
#441 = CARTESIAN_POINT('',(21.,11.,1.1));
#442 = VECTOR('',#443,1.);
#443 = DIRECTION('',(1.,0.,0.));
#444 = ORIENTED_EDGE('',*,*,#445,.F.);
#445 = EDGE_CURVE('',#422,#438,#446,.T.);
#446 = LINE('',#447,#448);
#447 = CARTESIAN_POINT('',(21.,13.,1.1));
#448 = VECTOR('',#449,1.);
#449 = DIRECTION('',(0.,-1.,0.));
#450 = FACE_BOUND('',#451,.T.);
#451 = EDGE_LOOP('',(#452,#462,#470,#478));
#452 = ORIENTED_EDGE('',*,*,#453,.F.);
#453 = EDGE_CURVE('',#454,#456,#458,.T.);
#454 = VERTEX_POINT('',#455);
#455 = CARTESIAN_POINT('',(22.2,9.5,1.1));
#456 = VERTEX_POINT('',#457);
#457 = CARTESIAN_POINT('',(21.2,9.5,1.1));
#458 = LINE('',#459,#460);
#459 = CARTESIAN_POINT('',(21.2,9.5,1.1));
#460 = VECTOR('',#461,1.);
#461 = DIRECTION('',(-1.,-0.,-0.));
#462 = ORIENTED_EDGE('',*,*,#463,.F.);
#463 = EDGE_CURVE('',#464,#454,#466,.T.);
#464 = VERTEX_POINT('',#465);
#465 = CARTESIAN_POINT('',(22.2,7.5,1.1));
#466 = LINE('',#467,#468);
#467 = CARTESIAN_POINT('',(22.2,9.5,1.1));
#468 = VECTOR('',#469,1.);
#469 = DIRECTION('',(0.,1.,0.));
#470 = ORIENTED_EDGE('',*,*,#471,.F.);
#471 = EDGE_CURVE('',#472,#464,#474,.T.);
#472 = VERTEX_POINT('',#473);
#473 = CARTESIAN_POINT('',(21.2,7.5,1.1));
#474 = LINE('',#475,#476);
#475 = CARTESIAN_POINT('',(21.2,7.5,1.1));
#476 = VECTOR('',#477,1.);
#477 = DIRECTION('',(1.,0.,0.));
#478 = ORIENTED_EDGE('',*,*,#479,.F.);
#479 = EDGE_CURVE('',#456,#472,#480,.T.);
#480 = LINE('',#481,#482);
#481 = CARTESIAN_POINT('',(21.2,9.5,1.1));
#482 = VECTOR('',#483,1.);
#483 = DIRECTION('',(0.,-1.,0.));
#484 = FACE_BOUND('',#485,.T.);
#485 = EDGE_LOOP('',(#486,#496,#504,#512));
#486 = ORIENTED_EDGE('',*,*,#487,.F.);
#487 = EDGE_CURVE('',#488,#490,#492,.T.);
#488 = VERTEX_POINT('',#489);
#489 = CARTESIAN_POINT('',(21.5,4.75,1.1));
#490 = VERTEX_POINT('',#491);
#491 = CARTESIAN_POINT('',(20.5,4.75,1.1));
#492 = LINE('',#493,#494);
#493 = CARTESIAN_POINT('',(20.5,4.75,1.1));
#494 = VECTOR('',#495,1.);
#495 = DIRECTION('',(-1.,-0.,-0.));
#496 = ORIENTED_EDGE('',*,*,#497,.F.);
#497 = EDGE_CURVE('',#498,#488,#500,.T.);
#498 = VERTEX_POINT('',#499);
#499 = CARTESIAN_POINT('',(21.5,2.75,1.1));
#500 = LINE('',#501,#502);
#501 = CARTESIAN_POINT('',(21.5,4.75,1.1));
#502 = VECTOR('',#503,1.);
#503 = DIRECTION('',(0.,1.,0.));
#504 = ORIENTED_EDGE('',*,*,#505,.F.);
#505 = EDGE_CURVE('',#506,#498,#508,.T.);
#506 = VERTEX_POINT('',#507);
#507 = CARTESIAN_POINT('',(20.5,2.75,1.1));
#508 = LINE('',#509,#510);
#509 = CARTESIAN_POINT('',(20.5,2.75,1.1));
#510 = VECTOR('',#511,1.);
#511 = DIRECTION('',(1.,0.,0.));
#512 = ORIENTED_EDGE('',*,*,#513,.F.);
#513 = EDGE_CURVE('',#490,#506,#514,.T.);
#514 = LINE('',#515,#516);
#515 = CARTESIAN_POINT('',(20.5,4.75,1.1));
#516 = VECTOR('',#517,1.);
#517 = DIRECTION('',(4.336808689942E-16,-1.,0.));
#518 = PLANE('',#519);
#519 = AXIS2_PLACEMENT_3D('',#520,#521,#522);
#520 = CARTESIAN_POINT('',(25.,17.,1.1));
#521 = DIRECTION('',(0.,0.,1.));
#522 = DIRECTION('',(1.,0.,0.));
#523 = ADVANCED_FACE('',(#524),#536,.T.);
#524 = FACE_BOUND('',#525,.T.);
#525 = EDGE_LOOP('',(#526,#527,#528,#529));
#526 = ORIENTED_EDGE('',*,*,#284,.F.);
#527 = ORIENTED_EDGE('',*,*,#325,.T.);
#528 = ORIENTED_EDGE('',*,*,#301,.T.);
#529 = ORIENTED_EDGE('',*,*,#530,.F.);
#530 = EDGE_CURVE('',#285,#293,#531,.T.);
#531 = CIRCLE('',#532,2.);
#532 = AXIS2_PLACEMENT_3D('',#533,#534,#535);
#533 = CARTESIAN_POINT('',(26.,17.,1.2));
#534 = DIRECTION('',(0.,0.,1.));
#535 = DIRECTION('',(1.,0.,0.));
#536 = CYLINDRICAL_SURFACE('',#537,2.);
#537 = AXIS2_PLACEMENT_3D('',#538,#539,#540);
#538 = CARTESIAN_POINT('',(26.,17.,1.373900992974E-15));
#539 = DIRECTION('',(0.,0.,1.));
#540 = DIRECTION('',(1.,0.,0.));
#541 = ADVANCED_FACE('',(#542,#552),#556,.T.);
#542 = FACE_BOUND('',#543,.T.);
#543 = EDGE_LOOP('',(#544,#551));
#544 = ORIENTED_EDGE('',*,*,#545,.F.);
#545 = EDGE_CURVE('',#24,#32,#546,.T.);
#546 = CIRCLE('',#547,1.);
#547 = AXIS2_PLACEMENT_3D('',#548,#549,#550);
#548 = CARTESIAN_POINT('',(26.,17.,1.2));
#549 = DIRECTION('',(0.,0.,1.));
#550 = DIRECTION('',(1.,0.,0.));
#551 = ORIENTED_EDGE('',*,*,#31,.F.);
#552 = FACE_BOUND('',#553,.T.);
#553 = EDGE_LOOP('',(#554,#555));
#554 = ORIENTED_EDGE('',*,*,#292,.T.);
#555 = ORIENTED_EDGE('',*,*,#530,.T.);
#556 = PLANE('',#557);
#557 = AXIS2_PLACEMENT_3D('',#558,#559,#560);
#558 = CARTESIAN_POINT('',(26.,17.,1.2));
#559 = DIRECTION('',(0.,0.,1.));
#560 = DIRECTION('',(1.,0.,0.));
#561 = ADVANCED_FACE('',(#562,#572,#582),#666,.F.);
#562 = FACE_BOUND('',#563,.F.);
#563 = EDGE_LOOP('',(#564,#571));
#564 = ORIENTED_EDGE('',*,*,#565,.F.);
#565 = EDGE_CURVE('',#201,#209,#566,.T.);
#566 = CIRCLE('',#567,2.);
#567 = AXIS2_PLACEMENT_3D('',#568,#569,#570);
#568 = CARTESIAN_POINT('',(26.,17.,0.1));
#569 = DIRECTION('',(0.,0.,1.));
#570 = DIRECTION('',(1.,0.,0.));
#571 = ORIENTED_EDGE('',*,*,#208,.F.);
#572 = FACE_BOUND('',#573,.F.);
#573 = EDGE_LOOP('',(#574,#581));
#574 = ORIENTED_EDGE('',*,*,#575,.F.);
#575 = EDGE_CURVE('',#159,#167,#576,.T.);
#576 = CIRCLE('',#577,2.);
#577 = AXIS2_PLACEMENT_3D('',#578,#579,#580);
#578 = CARTESIAN_POINT('',(26.,3.,0.1));
#579 = DIRECTION('',(0.,0.,1.));
#580 = DIRECTION('',(1.,0.,0.));
#581 = ORIENTED_EDGE('',*,*,#166,.F.);
#582 = FACE_BOUND('',#583,.F.);
#583 = EDGE_LOOP('',(#584,#593,#602,#610,#617,#618,#626,#633,#642,#651,
    #659));
#584 = ORIENTED_EDGE('',*,*,#585,.T.);
#585 = EDGE_CURVE('',#586,#209,#588,.T.);
#586 = VERTEX_POINT('',#587);
#587 = CARTESIAN_POINT('',(26.5,14.401923788647,0.1));
#588 = CIRCLE('',#589,3.);
#589 = AXIS2_PLACEMENT_3D('',#590,#591,#592);
#590 = CARTESIAN_POINT('',(25.,17.,0.1));
#591 = DIRECTION('',(0.,0.,1.));
#592 = DIRECTION('',(1.,0.,0.));
#593 = ORIENTED_EDGE('',*,*,#594,.T.);
#594 = EDGE_CURVE('',#209,#595,#597,.T.);
#595 = VERTEX_POINT('',#596);
#596 = CARTESIAN_POINT('',(25.,20.,0.1));
#597 = CIRCLE('',#598,3.);
#598 = AXIS2_PLACEMENT_3D('',#599,#600,#601);
#599 = CARTESIAN_POINT('',(25.,17.,0.1));
#600 = DIRECTION('',(0.,0.,1.));
#601 = DIRECTION('',(1.,0.,0.));
#602 = ORIENTED_EDGE('',*,*,#603,.T.);
#603 = EDGE_CURVE('',#595,#604,#606,.T.);
#604 = VERTEX_POINT('',#605);
#605 = CARTESIAN_POINT('',(10.,20.,0.1));
#606 = LINE('',#607,#608);
#607 = CARTESIAN_POINT('',(10.,20.,0.1));
#608 = VECTOR('',#609,1.);
#609 = DIRECTION('',(-1.,-0.,-0.));
#610 = ORIENTED_EDGE('',*,*,#611,.T.);
#611 = EDGE_CURVE('',#604,#243,#612,.T.);
#612 = CIRCLE('',#613,10.);
#613 = AXIS2_PLACEMENT_3D('',#614,#615,#616);
#614 = CARTESIAN_POINT('',(10.,10.,0.1));
#615 = DIRECTION('',(0.,0.,1.));
#616 = DIRECTION('',(1.,0.,0.));
#617 = ORIENTED_EDGE('',*,*,#250,.T.);
#618 = ORIENTED_EDGE('',*,*,#619,.T.);
#619 = EDGE_CURVE('',#251,#620,#622,.T.);
#620 = VERTEX_POINT('',#621);
#621 = CARTESIAN_POINT('',(25.,1.7763568394E-15,0.1));
#622 = LINE('',#623,#624);
#623 = CARTESIAN_POINT('',(10.,1.7763568394E-15,0.1));
#624 = VECTOR('',#625,1.);
#625 = DIRECTION('',(1.,0.,0.));
#626 = ORIENTED_EDGE('',*,*,#627,.T.);
#627 = EDGE_CURVE('',#620,#167,#628,.T.);
#628 = CIRCLE('',#629,3.);
#629 = AXIS2_PLACEMENT_3D('',#630,#631,#632);
#630 = CARTESIAN_POINT('',(25.,3.,0.1));
#631 = DIRECTION('',(0.,0.,1.));
#632 = DIRECTION('',(1.,0.,0.));
#633 = ORIENTED_EDGE('',*,*,#634,.T.);
#634 = EDGE_CURVE('',#167,#635,#637,.T.);
#635 = VERTEX_POINT('',#636);
#636 = CARTESIAN_POINT('',(26.5,5.598076211353,0.1));
#637 = CIRCLE('',#638,3.);
#638 = AXIS2_PLACEMENT_3D('',#639,#640,#641);
#639 = CARTESIAN_POINT('',(25.,3.,0.1));
#640 = DIRECTION('',(0.,0.,1.));
#641 = DIRECTION('',(1.,0.,0.));
#642 = ORIENTED_EDGE('',*,*,#643,.F.);
#643 = EDGE_CURVE('',#644,#635,#646,.T.);
#644 = VERTEX_POINT('',#645);
#645 = CARTESIAN_POINT('',(25.,8.196152422707,0.1));
#646 = CIRCLE('',#647,3.);
#647 = AXIS2_PLACEMENT_3D('',#648,#649,#650);
#648 = CARTESIAN_POINT('',(28.,8.196152422707,0.1));
#649 = DIRECTION('',(0.,0.,1.));
#650 = DIRECTION('',(1.,0.,0.));
#651 = ORIENTED_EDGE('',*,*,#652,.T.);
#652 = EDGE_CURVE('',#644,#653,#655,.T.);
#653 = VERTEX_POINT('',#654);
#654 = CARTESIAN_POINT('',(25.,11.803847577293,0.1));
#655 = LINE('',#656,#657);
#656 = CARTESIAN_POINT('',(25.,14.,0.1));
#657 = VECTOR('',#658,1.);
#658 = DIRECTION('',(-2.168404344971E-16,1.,0.));
#659 = ORIENTED_EDGE('',*,*,#660,.F.);
#660 = EDGE_CURVE('',#586,#653,#661,.T.);
#661 = CIRCLE('',#662,3.);
#662 = AXIS2_PLACEMENT_3D('',#663,#664,#665);
#663 = CARTESIAN_POINT('',(28.,11.803847577293,0.1));
#664 = DIRECTION('',(0.,0.,1.));
#665 = DIRECTION('',(1.,0.,0.));
#666 = PLANE('',#667);
#667 = AXIS2_PLACEMENT_3D('',#668,#669,#670);
#668 = CARTESIAN_POINT('',(25.,17.,0.1));
#669 = DIRECTION('',(0.,0.,1.));
#670 = DIRECTION('',(1.,0.,0.));
#671 = ADVANCED_FACE('',(#672),#690,.T.);
#672 = FACE_BOUND('',#673,.T.);
#673 = EDGE_LOOP('',(#674,#675,#676,#682,#683,#684));
#674 = ORIENTED_EDGE('',*,*,#585,.T.);
#675 = ORIENTED_EDGE('',*,*,#594,.T.);
#676 = ORIENTED_EDGE('',*,*,#677,.F.);
#677 = EDGE_CURVE('',#387,#595,#678,.T.);
#678 = LINE('',#679,#680);
#679 = CARTESIAN_POINT('',(25.,20.,1.1));
#680 = VECTOR('',#681,1.);
#681 = DIRECTION('',(-0.,-0.,-1.));
#682 = ORIENTED_EDGE('',*,*,#386,.F.);
#683 = ORIENTED_EDGE('',*,*,#379,.F.);
#684 = ORIENTED_EDGE('',*,*,#685,.T.);
#685 = EDGE_CURVE('',#371,#586,#686,.T.);
#686 = LINE('',#687,#688);
#687 = CARTESIAN_POINT('',(26.5,14.401923788647,1.1));
#688 = VECTOR('',#689,1.);
#689 = DIRECTION('',(-0.,-0.,-1.));
#690 = CYLINDRICAL_SURFACE('',#691,3.);
#691 = AXIS2_PLACEMENT_3D('',#692,#693,#694);
#692 = CARTESIAN_POINT('',(25.,17.,1.1));
#693 = DIRECTION('',(-0.,-0.,-1.));
#694 = DIRECTION('',(-1.,0.,0.));
#695 = ADVANCED_FACE('',(#696),#707,.F.);
#696 = FACE_BOUND('',#697,.T.);
#697 = EDGE_LOOP('',(#698,#699,#705,#706));
#698 = ORIENTED_EDGE('',*,*,#603,.T.);
#699 = ORIENTED_EDGE('',*,*,#700,.F.);
#700 = EDGE_CURVE('',#396,#604,#701,.T.);
#701 = LINE('',#702,#703);
#702 = CARTESIAN_POINT('',(10.,20.,1.1));
#703 = VECTOR('',#704,1.);
#704 = DIRECTION('',(-0.,-0.,-1.));
#705 = ORIENTED_EDGE('',*,*,#395,.F.);
#706 = ORIENTED_EDGE('',*,*,#677,.T.);
#707 = PLANE('',#708);
#708 = AXIS2_PLACEMENT_3D('',#709,#710,#711);
#709 = CARTESIAN_POINT('',(10.,20.,1.1));
#710 = DIRECTION('',(0.,-1.,0.));
#711 = DIRECTION('',(0.,0.,-1.));
#712 = ADVANCED_FACE('',(#713),#719,.T.);
#713 = FACE_BOUND('',#714,.T.);
#714 = EDGE_LOOP('',(#715,#716,#717,#718));
#715 = ORIENTED_EDGE('',*,*,#242,.F.);
#716 = ORIENTED_EDGE('',*,*,#403,.F.);
#717 = ORIENTED_EDGE('',*,*,#700,.T.);
#718 = ORIENTED_EDGE('',*,*,#611,.T.);
#719 = CYLINDRICAL_SURFACE('',#720,10.);
#720 = AXIS2_PLACEMENT_3D('',#721,#722,#723);
#721 = CARTESIAN_POINT('',(10.,10.,1.1));
#722 = DIRECTION('',(-0.,-0.,-1.));
#723 = DIRECTION('',(-1.,0.,0.));
#724 = ADVANCED_FACE('',(#725),#736,.F.);
#725 = FACE_BOUND('',#726,.T.);
#726 = EDGE_LOOP('',(#727,#728,#734,#735));
#727 = ORIENTED_EDGE('',*,*,#619,.T.);
#728 = ORIENTED_EDGE('',*,*,#729,.F.);
#729 = EDGE_CURVE('',#336,#620,#730,.T.);
#730 = LINE('',#731,#732);
#731 = CARTESIAN_POINT('',(25.,1.7763568394E-15,1.1));
#732 = VECTOR('',#733,1.);
#733 = DIRECTION('',(-0.,-0.,-1.));
#734 = ORIENTED_EDGE('',*,*,#411,.F.);
#735 = ORIENTED_EDGE('',*,*,#259,.T.);
#736 = PLANE('',#737);
#737 = AXIS2_PLACEMENT_3D('',#738,#739,#740);
#738 = CARTESIAN_POINT('',(10.,1.7763568394E-15,1.1));
#739 = DIRECTION('',(0.,1.,0.));
#740 = DIRECTION('',(0.,0.,1.));
#741 = ADVANCED_FACE('',(#742),#755,.T.);
#742 = FACE_BOUND('',#743,.T.);
#743 = EDGE_LOOP('',(#744,#745,#746,#752,#753,#754));
#744 = ORIENTED_EDGE('',*,*,#627,.T.);
#745 = ORIENTED_EDGE('',*,*,#634,.T.);
#746 = ORIENTED_EDGE('',*,*,#747,.T.);
#747 = EDGE_CURVE('',#635,#345,#748,.T.);
#748 = LINE('',#749,#750);
#749 = CARTESIAN_POINT('',(26.5,5.598076211353,1.1));
#750 = VECTOR('',#751,1.);
#751 = DIRECTION('',(0.,0.,1.));
#752 = ORIENTED_EDGE('',*,*,#344,.F.);
#753 = ORIENTED_EDGE('',*,*,#335,.F.);
#754 = ORIENTED_EDGE('',*,*,#729,.T.);
#755 = CYLINDRICAL_SURFACE('',#756,3.);
#756 = AXIS2_PLACEMENT_3D('',#757,#758,#759);
#757 = CARTESIAN_POINT('',(25.,3.,1.1));
#758 = DIRECTION('',(-0.,-0.,-1.));
#759 = DIRECTION('',(-1.,0.,0.));
#760 = ADVANCED_FACE('',(#761),#777,.F.);
#761 = FACE_BOUND('',#762,.T.);
#762 = EDGE_LOOP('',(#763,#764,#770,#771));
#763 = ORIENTED_EDGE('',*,*,#362,.F.);
#764 = ORIENTED_EDGE('',*,*,#765,.T.);
#765 = EDGE_CURVE('',#354,#644,#766,.T.);
#766 = LINE('',#767,#768);
#767 = CARTESIAN_POINT('',(25.,8.196152422707,0.1));
#768 = VECTOR('',#769,1.);
#769 = DIRECTION('',(-0.,-0.,-1.));
#770 = ORIENTED_EDGE('',*,*,#652,.T.);
#771 = ORIENTED_EDGE('',*,*,#772,.T.);
#772 = EDGE_CURVE('',#653,#363,#773,.T.);
#773 = LINE('',#774,#775);
#774 = CARTESIAN_POINT('',(25.,11.803847577293,1.1));
#775 = VECTOR('',#776,1.);
#776 = DIRECTION('',(0.,0.,1.));
#777 = PLANE('',#778);
#778 = AXIS2_PLACEMENT_3D('',#779,#780,#781);
#779 = CARTESIAN_POINT('',(25.,14.,1.1));
#780 = DIRECTION('',(-1.,-2.168404344971E-16,0.));
#781 = DIRECTION('',(2.168404344971E-16,-1.,0.));
#782 = ADVANCED_FACE('',(#783),#789,.F.);
#783 = FACE_BOUND('',#784,.F.);
#784 = EDGE_LOOP('',(#785,#786,#787,#788));
#785 = ORIENTED_EDGE('',*,*,#765,.T.);
#786 = ORIENTED_EDGE('',*,*,#643,.T.);
#787 = ORIENTED_EDGE('',*,*,#747,.T.);
#788 = ORIENTED_EDGE('',*,*,#353,.T.);
#789 = CYLINDRICAL_SURFACE('',#790,3.);
#790 = AXIS2_PLACEMENT_3D('',#791,#792,#793);
#791 = CARTESIAN_POINT('',(28.,8.196152422707,1.1));
#792 = DIRECTION('',(-0.,-0.,-1.));
#793 = DIRECTION('',(-1.,0.,0.));
#794 = ADVANCED_FACE('',(#795),#801,.F.);
#795 = FACE_BOUND('',#796,.F.);
#796 = EDGE_LOOP('',(#797,#798,#799,#800));
#797 = ORIENTED_EDGE('',*,*,#685,.T.);
#798 = ORIENTED_EDGE('',*,*,#660,.T.);
#799 = ORIENTED_EDGE('',*,*,#772,.T.);
#800 = ORIENTED_EDGE('',*,*,#370,.T.);
#801 = CYLINDRICAL_SURFACE('',#802,3.);
#802 = AXIS2_PLACEMENT_3D('',#803,#804,#805);
#803 = CARTESIAN_POINT('',(28.,11.803847577293,1.1));
#804 = DIRECTION('',(-0.,-0.,-1.));
#805 = DIRECTION('',(-1.,0.,0.));
#806 = ADVANCED_FACE('',(#807,#817),#827,.F.);
#807 = FACE_BOUND('',#808,.T.);
#808 = EDGE_LOOP('',(#809,#816));
#809 = ORIENTED_EDGE('',*,*,#810,.T.);
#810 = EDGE_CURVE('',#22,#41,#811,.T.);
#811 = CIRCLE('',#812,1.);
#812 = AXIS2_PLACEMENT_3D('',#813,#814,#815);
#813 = CARTESIAN_POINT('',(26.,17.,1.373900992974E-15));
#814 = DIRECTION('',(0.,0.,1.));
#815 = DIRECTION('',(1.,0.,0.));
#816 = ORIENTED_EDGE('',*,*,#48,.T.);
#817 = FACE_BOUND('',#818,.T.);
#818 = EDGE_LOOP('',(#819,#820));
#819 = ORIENTED_EDGE('',*,*,#189,.F.);
#820 = ORIENTED_EDGE('',*,*,#821,.F.);
#821 = EDGE_CURVE('',#192,#190,#822,.T.);
#822 = CIRCLE('',#823,2.);
#823 = AXIS2_PLACEMENT_3D('',#824,#825,#826);
#824 = CARTESIAN_POINT('',(26.,17.,1.373900992974E-15));
#825 = DIRECTION('',(0.,0.,1.));
#826 = DIRECTION('',(1.,0.,0.));
#827 = PLANE('',#828);
#828 = AXIS2_PLACEMENT_3D('',#829,#830,#831);
#829 = CARTESIAN_POINT('',(26.,17.,1.373900992974E-15));
#830 = DIRECTION('',(0.,0.,1.));
#831 = DIRECTION('',(1.,0.,0.));
#832 = ADVANCED_FACE('',(#833),#839,.T.);
#833 = FACE_BOUND('',#834,.T.);
#834 = EDGE_LOOP('',(#835,#836,#837,#838));
#835 = ORIENTED_EDGE('',*,*,#200,.F.);
#836 = ORIENTED_EDGE('',*,*,#821,.T.);
#837 = ORIENTED_EDGE('',*,*,#217,.T.);
#838 = ORIENTED_EDGE('',*,*,#565,.F.);
#839 = CYLINDRICAL_SURFACE('',#840,2.);
#840 = AXIS2_PLACEMENT_3D('',#841,#842,#843);
#841 = CARTESIAN_POINT('',(26.,17.,1.373900992974E-15));
#842 = DIRECTION('',(0.,0.,1.));
#843 = DIRECTION('',(1.,0.,0.));
#844 = ADVANCED_FACE('',(#845,#855),#865,.F.);
#845 = FACE_BOUND('',#846,.T.);
#846 = EDGE_LOOP('',(#847,#854));
#847 = ORIENTED_EDGE('',*,*,#848,.T.);
#848 = EDGE_CURVE('',#64,#83,#849,.T.);
#849 = CIRCLE('',#850,1.);
#850 = AXIS2_PLACEMENT_3D('',#851,#852,#853);
#851 = CARTESIAN_POINT('',(26.,3.,1.373900992974E-15));
#852 = DIRECTION('',(0.,0.,1.));
#853 = DIRECTION('',(1.,0.,0.));
#854 = ORIENTED_EDGE('',*,*,#90,.T.);
#855 = FACE_BOUND('',#856,.T.);
#856 = EDGE_LOOP('',(#857,#858));
#857 = ORIENTED_EDGE('',*,*,#147,.F.);
#858 = ORIENTED_EDGE('',*,*,#859,.F.);
#859 = EDGE_CURVE('',#150,#148,#860,.T.);
#860 = CIRCLE('',#861,2.);
#861 = AXIS2_PLACEMENT_3D('',#862,#863,#864);
#862 = CARTESIAN_POINT('',(26.,3.,1.373900992974E-15));
#863 = DIRECTION('',(0.,0.,1.));
#864 = DIRECTION('',(1.,0.,0.));
#865 = PLANE('',#866);
#866 = AXIS2_PLACEMENT_3D('',#867,#868,#869);
#867 = CARTESIAN_POINT('',(26.,3.,1.373900992974E-15));
#868 = DIRECTION('',(0.,0.,1.));
#869 = DIRECTION('',(1.,0.,0.));
#870 = ADVANCED_FACE('',(#871),#877,.T.);
#871 = FACE_BOUND('',#872,.T.);
#872 = EDGE_LOOP('',(#873,#874,#875,#876));
#873 = ORIENTED_EDGE('',*,*,#158,.F.);
#874 = ORIENTED_EDGE('',*,*,#859,.T.);
#875 = ORIENTED_EDGE('',*,*,#175,.T.);
#876 = ORIENTED_EDGE('',*,*,#575,.F.);
#877 = CYLINDRICAL_SURFACE('',#878,2.);
#878 = AXIS2_PLACEMENT_3D('',#879,#880,#881);
#879 = CARTESIAN_POINT('',(26.,3.,1.373900992974E-15));
#880 = DIRECTION('',(0.,0.,1.));
#881 = DIRECTION('',(1.,0.,0.));
#882 = ADVANCED_FACE('',(#883),#895,.T.);
#883 = FACE_BOUND('',#884,.T.);
#884 = EDGE_LOOP('',(#885,#886,#887,#888));
#885 = ORIENTED_EDGE('',*,*,#116,.F.);
#886 = ORIENTED_EDGE('',*,*,#315,.T.);
#887 = ORIENTED_EDGE('',*,*,#133,.T.);
#888 = ORIENTED_EDGE('',*,*,#889,.F.);
#889 = EDGE_CURVE('',#117,#125,#890,.T.);
#890 = CIRCLE('',#891,2.);
#891 = AXIS2_PLACEMENT_3D('',#892,#893,#894);
#892 = CARTESIAN_POINT('',(26.,3.,1.2));
#893 = DIRECTION('',(0.,0.,1.));
#894 = DIRECTION('',(1.,0.,0.));
#895 = CYLINDRICAL_SURFACE('',#896,2.);
#896 = AXIS2_PLACEMENT_3D('',#897,#898,#899);
#897 = CARTESIAN_POINT('',(26.,3.,1.373900992974E-15));
#898 = DIRECTION('',(0.,0.,1.));
#899 = DIRECTION('',(1.,0.,0.));
#900 = ADVANCED_FACE('',(#901,#911),#915,.T.);
#901 = FACE_BOUND('',#902,.T.);
#902 = EDGE_LOOP('',(#903,#910));
#903 = ORIENTED_EDGE('',*,*,#904,.F.);
#904 = EDGE_CURVE('',#66,#74,#905,.T.);
#905 = CIRCLE('',#906,1.);
#906 = AXIS2_PLACEMENT_3D('',#907,#908,#909);
#907 = CARTESIAN_POINT('',(26.,3.,1.2));
#908 = DIRECTION('',(0.,0.,1.));
#909 = DIRECTION('',(1.,0.,0.));
#910 = ORIENTED_EDGE('',*,*,#73,.F.);
#911 = FACE_BOUND('',#912,.T.);
#912 = EDGE_LOOP('',(#913,#914));
#913 = ORIENTED_EDGE('',*,*,#124,.T.);
#914 = ORIENTED_EDGE('',*,*,#889,.T.);
#915 = PLANE('',#916);
#916 = AXIS2_PLACEMENT_3D('',#917,#918,#919);
#917 = CARTESIAN_POINT('',(26.,3.,1.2));
#918 = DIRECTION('',(0.,0.,1.));
#919 = DIRECTION('',(1.,0.,0.));
#920 = ADVANCED_FACE('',(#921),#927,.F.);
#921 = FACE_BOUND('',#922,.F.);
#922 = EDGE_LOOP('',(#923,#924,#925,#926));
#923 = ORIENTED_EDGE('',*,*,#904,.F.);
#924 = ORIENTED_EDGE('',*,*,#63,.F.);
#925 = ORIENTED_EDGE('',*,*,#848,.T.);
#926 = ORIENTED_EDGE('',*,*,#82,.T.);
#927 = CYLINDRICAL_SURFACE('',#928,1.);
#928 = AXIS2_PLACEMENT_3D('',#929,#930,#931);
#929 = CARTESIAN_POINT('',(26.,3.,-0.8));
#930 = DIRECTION('',(0.,0.,1.));
#931 = DIRECTION('',(1.,0.,0.));
#932 = ADVANCED_FACE('',(#933),#939,.F.);
#933 = FACE_BOUND('',#934,.F.);
#934 = EDGE_LOOP('',(#935,#936,#937,#938));
#935 = ORIENTED_EDGE('',*,*,#545,.F.);
#936 = ORIENTED_EDGE('',*,*,#21,.F.);
#937 = ORIENTED_EDGE('',*,*,#810,.T.);
#938 = ORIENTED_EDGE('',*,*,#40,.T.);
#939 = CYLINDRICAL_SURFACE('',#940,1.);
#940 = AXIS2_PLACEMENT_3D('',#941,#942,#943);
#941 = CARTESIAN_POINT('',(26.,17.,-0.8));
#942 = DIRECTION('',(0.,0.,1.));
#943 = DIRECTION('',(1.,0.,0.));
#944 = ADVANCED_FACE('',(#945),#970,.F.);
#945 = FACE_BOUND('',#946,.T.);
#946 = EDGE_LOOP('',(#947,#948,#956,#964));
#947 = ORIENTED_EDGE('',*,*,#429,.T.);
#948 = ORIENTED_EDGE('',*,*,#949,.F.);
#949 = EDGE_CURVE('',#950,#420,#952,.T.);
#950 = VERTEX_POINT('',#951);
#951 = CARTESIAN_POINT('',(23.5,13.,2.1));
#952 = LINE('',#953,#954);
#953 = CARTESIAN_POINT('',(23.5,13.,2.1));
#954 = VECTOR('',#955,1.);
#955 = DIRECTION('',(-0.,-0.,-1.));
#956 = ORIENTED_EDGE('',*,*,#957,.F.);
#957 = EDGE_CURVE('',#958,#950,#960,.T.);
#958 = VERTEX_POINT('',#959);
#959 = CARTESIAN_POINT('',(23.5,11.,2.1));
#960 = LINE('',#961,#962);
#961 = CARTESIAN_POINT('',(23.5,13.,2.1));
#962 = VECTOR('',#963,1.);
#963 = DIRECTION('',(-8.673617379884E-16,1.,0.));
#964 = ORIENTED_EDGE('',*,*,#965,.T.);
#965 = EDGE_CURVE('',#958,#430,#966,.T.);
#966 = LINE('',#967,#968);
#967 = CARTESIAN_POINT('',(23.5,11.,2.1));
#968 = VECTOR('',#969,1.);
#969 = DIRECTION('',(-0.,-0.,-1.));
#970 = PLANE('',#971);
#971 = AXIS2_PLACEMENT_3D('',#972,#973,#974);
#972 = CARTESIAN_POINT('',(23.5,13.,2.1));
#973 = DIRECTION('',(-1.,-8.673617379884E-16,0.));
#974 = DIRECTION('',(8.673617379884E-16,-1.,0.));
#975 = ADVANCED_FACE('',(#976),#994,.F.);
#976 = FACE_BOUND('',#977,.T.);
#977 = EDGE_LOOP('',(#978,#979,#987,#993));
#978 = ORIENTED_EDGE('',*,*,#419,.T.);
#979 = ORIENTED_EDGE('',*,*,#980,.F.);
#980 = EDGE_CURVE('',#981,#422,#983,.T.);
#981 = VERTEX_POINT('',#982);
#982 = CARTESIAN_POINT('',(21.,13.,2.1));
#983 = LINE('',#984,#985);
#984 = CARTESIAN_POINT('',(21.,13.,2.1));
#985 = VECTOR('',#986,1.);
#986 = DIRECTION('',(-0.,-0.,-1.));
#987 = ORIENTED_EDGE('',*,*,#988,.F.);
#988 = EDGE_CURVE('',#950,#981,#989,.T.);
#989 = LINE('',#990,#991);
#990 = CARTESIAN_POINT('',(21.,13.,2.1));
#991 = VECTOR('',#992,1.);
#992 = DIRECTION('',(-1.,-0.,-0.));
#993 = ORIENTED_EDGE('',*,*,#949,.T.);
#994 = PLANE('',#995);
#995 = AXIS2_PLACEMENT_3D('',#996,#997,#998);
#996 = CARTESIAN_POINT('',(21.,13.,2.1));
#997 = DIRECTION('',(0.,-1.,0.));
#998 = DIRECTION('',(0.,0.,-1.));
#999 = ADVANCED_FACE('',(#1000),#1018,.F.);
#1000 = FACE_BOUND('',#1001,.T.);
#1001 = EDGE_LOOP('',(#1002,#1003,#1011,#1017));
#1002 = ORIENTED_EDGE('',*,*,#445,.T.);
#1003 = ORIENTED_EDGE('',*,*,#1004,.F.);
#1004 = EDGE_CURVE('',#1005,#438,#1007,.T.);
#1005 = VERTEX_POINT('',#1006);
#1006 = CARTESIAN_POINT('',(21.,11.,2.1));
#1007 = LINE('',#1008,#1009);
#1008 = CARTESIAN_POINT('',(21.,11.,2.1));
#1009 = VECTOR('',#1010,1.);
#1010 = DIRECTION('',(-0.,-0.,-1.));
#1011 = ORIENTED_EDGE('',*,*,#1012,.F.);
#1012 = EDGE_CURVE('',#981,#1005,#1013,.T.);
#1013 = LINE('',#1014,#1015);
#1014 = CARTESIAN_POINT('',(21.,13.,2.1));
#1015 = VECTOR('',#1016,1.);
#1016 = DIRECTION('',(0.,-1.,0.));
#1017 = ORIENTED_EDGE('',*,*,#980,.T.);
#1018 = PLANE('',#1019);
#1019 = AXIS2_PLACEMENT_3D('',#1020,#1021,#1022);
#1020 = CARTESIAN_POINT('',(21.,13.,2.1));
#1021 = DIRECTION('',(1.,0.,0.));
#1022 = DIRECTION('',(0.,0.,-1.));
#1023 = ADVANCED_FACE('',(#1024),#1035,.F.);
#1024 = FACE_BOUND('',#1025,.T.);
#1025 = EDGE_LOOP('',(#1026,#1027,#1028,#1034));
#1026 = ORIENTED_EDGE('',*,*,#437,.T.);
#1027 = ORIENTED_EDGE('',*,*,#965,.F.);
#1028 = ORIENTED_EDGE('',*,*,#1029,.F.);
#1029 = EDGE_CURVE('',#1005,#958,#1030,.T.);
#1030 = LINE('',#1031,#1032);
#1031 = CARTESIAN_POINT('',(21.,11.,2.1));
#1032 = VECTOR('',#1033,1.);
#1033 = DIRECTION('',(1.,0.,0.));
#1034 = ORIENTED_EDGE('',*,*,#1004,.T.);
#1035 = PLANE('',#1036);
#1036 = AXIS2_PLACEMENT_3D('',#1037,#1038,#1039);
#1037 = CARTESIAN_POINT('',(21.,11.,2.1));
#1038 = DIRECTION('',(0.,1.,0.));
#1039 = DIRECTION('',(0.,0.,1.));
#1040 = ADVANCED_FACE('',(#1041),#1047,.T.);
#1041 = FACE_BOUND('',#1042,.T.);
#1042 = EDGE_LOOP('',(#1043,#1044,#1045,#1046));
#1043 = ORIENTED_EDGE('',*,*,#957,.T.);
#1044 = ORIENTED_EDGE('',*,*,#988,.T.);
#1045 = ORIENTED_EDGE('',*,*,#1012,.T.);
#1046 = ORIENTED_EDGE('',*,*,#1029,.T.);
#1047 = PLANE('',#1048);
#1048 = AXIS2_PLACEMENT_3D('',#1049,#1050,#1051);
#1049 = CARTESIAN_POINT('',(14.,10.,2.1));
#1050 = DIRECTION('',(0.,0.,1.));
#1051 = DIRECTION('',(1.,0.,0.));
#1052 = ADVANCED_FACE('',(#1053),#1078,.F.);
#1053 = FACE_BOUND('',#1054,.T.);
#1054 = EDGE_LOOP('',(#1055,#1056,#1064,#1072));
#1055 = ORIENTED_EDGE('',*,*,#463,.T.);
#1056 = ORIENTED_EDGE('',*,*,#1057,.F.);
#1057 = EDGE_CURVE('',#1058,#454,#1060,.T.);
#1058 = VERTEX_POINT('',#1059);
#1059 = CARTESIAN_POINT('',(22.2,9.5,2.1));
#1060 = LINE('',#1061,#1062);
#1061 = CARTESIAN_POINT('',(22.2,9.5,2.1));
#1062 = VECTOR('',#1063,1.);
#1063 = DIRECTION('',(-0.,-0.,-1.));
#1064 = ORIENTED_EDGE('',*,*,#1065,.F.);
#1065 = EDGE_CURVE('',#1066,#1058,#1068,.T.);
#1066 = VERTEX_POINT('',#1067);
#1067 = CARTESIAN_POINT('',(22.2,7.5,2.1));
#1068 = LINE('',#1069,#1070);
#1069 = CARTESIAN_POINT('',(22.2,9.5,2.1));
#1070 = VECTOR('',#1071,1.);
#1071 = DIRECTION('',(0.,1.,0.));
#1072 = ORIENTED_EDGE('',*,*,#1073,.T.);
#1073 = EDGE_CURVE('',#1066,#464,#1074,.T.);
#1074 = LINE('',#1075,#1076);
#1075 = CARTESIAN_POINT('',(22.2,7.5,2.1));
#1076 = VECTOR('',#1077,1.);
#1077 = DIRECTION('',(-0.,-0.,-1.));
#1078 = PLANE('',#1079);
#1079 = AXIS2_PLACEMENT_3D('',#1080,#1081,#1082);
#1080 = CARTESIAN_POINT('',(22.2,9.5,2.1));
#1081 = DIRECTION('',(-1.,0.,0.));
#1082 = DIRECTION('',(0.,0.,1.));
#1083 = ADVANCED_FACE('',(#1084),#1102,.F.);
#1084 = FACE_BOUND('',#1085,.T.);
#1085 = EDGE_LOOP('',(#1086,#1087,#1095,#1101));
#1086 = ORIENTED_EDGE('',*,*,#453,.T.);
#1087 = ORIENTED_EDGE('',*,*,#1088,.F.);
#1088 = EDGE_CURVE('',#1089,#456,#1091,.T.);
#1089 = VERTEX_POINT('',#1090);
#1090 = CARTESIAN_POINT('',(21.2,9.5,2.1));
#1091 = LINE('',#1092,#1093);
#1092 = CARTESIAN_POINT('',(21.2,9.5,2.1));
#1093 = VECTOR('',#1094,1.);
#1094 = DIRECTION('',(-0.,-0.,-1.));
#1095 = ORIENTED_EDGE('',*,*,#1096,.F.);
#1096 = EDGE_CURVE('',#1058,#1089,#1097,.T.);
#1097 = LINE('',#1098,#1099);
#1098 = CARTESIAN_POINT('',(21.2,9.5,2.1));
#1099 = VECTOR('',#1100,1.);
#1100 = DIRECTION('',(-1.,-0.,-0.));
#1101 = ORIENTED_EDGE('',*,*,#1057,.T.);
#1102 = PLANE('',#1103);
#1103 = AXIS2_PLACEMENT_3D('',#1104,#1105,#1106);
#1104 = CARTESIAN_POINT('',(21.2,9.5,2.1));
#1105 = DIRECTION('',(0.,-1.,0.));
#1106 = DIRECTION('',(0.,0.,-1.));
#1107 = ADVANCED_FACE('',(#1108),#1126,.F.);
#1108 = FACE_BOUND('',#1109,.T.);
#1109 = EDGE_LOOP('',(#1110,#1111,#1119,#1125));
#1110 = ORIENTED_EDGE('',*,*,#479,.T.);
#1111 = ORIENTED_EDGE('',*,*,#1112,.F.);
#1112 = EDGE_CURVE('',#1113,#472,#1115,.T.);
#1113 = VERTEX_POINT('',#1114);
#1114 = CARTESIAN_POINT('',(21.2,7.5,2.1));
#1115 = LINE('',#1116,#1117);
#1116 = CARTESIAN_POINT('',(21.2,7.5,2.1));
#1117 = VECTOR('',#1118,1.);
#1118 = DIRECTION('',(-0.,-0.,-1.));
#1119 = ORIENTED_EDGE('',*,*,#1120,.F.);
#1120 = EDGE_CURVE('',#1089,#1113,#1121,.T.);
#1121 = LINE('',#1122,#1123);
#1122 = CARTESIAN_POINT('',(21.2,9.5,2.1));
#1123 = VECTOR('',#1124,1.);
#1124 = DIRECTION('',(0.,-1.,0.));
#1125 = ORIENTED_EDGE('',*,*,#1088,.T.);
#1126 = PLANE('',#1127);
#1127 = AXIS2_PLACEMENT_3D('',#1128,#1129,#1130);
#1128 = CARTESIAN_POINT('',(21.2,9.5,2.1));
#1129 = DIRECTION('',(1.,0.,0.));
#1130 = DIRECTION('',(0.,0.,-1.));
#1131 = ADVANCED_FACE('',(#1132),#1143,.F.);
#1132 = FACE_BOUND('',#1133,.T.);
#1133 = EDGE_LOOP('',(#1134,#1135,#1136,#1142));
#1134 = ORIENTED_EDGE('',*,*,#471,.T.);
#1135 = ORIENTED_EDGE('',*,*,#1073,.F.);
#1136 = ORIENTED_EDGE('',*,*,#1137,.F.);
#1137 = EDGE_CURVE('',#1113,#1066,#1138,.T.);
#1138 = LINE('',#1139,#1140);
#1139 = CARTESIAN_POINT('',(21.2,7.5,2.1));
#1140 = VECTOR('',#1141,1.);
#1141 = DIRECTION('',(1.,0.,0.));
#1142 = ORIENTED_EDGE('',*,*,#1112,.T.);
#1143 = PLANE('',#1144);
#1144 = AXIS2_PLACEMENT_3D('',#1145,#1146,#1147);
#1145 = CARTESIAN_POINT('',(21.2,7.5,2.1));
#1146 = DIRECTION('',(0.,1.,0.));
#1147 = DIRECTION('',(0.,0.,1.));
#1148 = ADVANCED_FACE('',(#1149),#1155,.T.);
#1149 = FACE_BOUND('',#1150,.T.);
#1150 = EDGE_LOOP('',(#1151,#1152,#1153,#1154));
#1151 = ORIENTED_EDGE('',*,*,#1065,.T.);
#1152 = ORIENTED_EDGE('',*,*,#1096,.T.);
#1153 = ORIENTED_EDGE('',*,*,#1120,.T.);
#1154 = ORIENTED_EDGE('',*,*,#1137,.T.);
#1155 = PLANE('',#1156);
#1156 = AXIS2_PLACEMENT_3D('',#1157,#1158,#1159);
#1157 = CARTESIAN_POINT('',(14.,10.,2.1));
#1158 = DIRECTION('',(0.,0.,1.));
#1159 = DIRECTION('',(1.,0.,0.));
#1160 = ADVANCED_FACE('',(#1161),#1186,.F.);
#1161 = FACE_BOUND('',#1162,.T.);
#1162 = EDGE_LOOP('',(#1163,#1164,#1172,#1180));
#1163 = ORIENTED_EDGE('',*,*,#497,.T.);
#1164 = ORIENTED_EDGE('',*,*,#1165,.F.);
#1165 = EDGE_CURVE('',#1166,#488,#1168,.T.);
#1166 = VERTEX_POINT('',#1167);
#1167 = CARTESIAN_POINT('',(21.5,4.75,2.1));
#1168 = LINE('',#1169,#1170);
#1169 = CARTESIAN_POINT('',(21.5,4.75,2.1));
#1170 = VECTOR('',#1171,1.);
#1171 = DIRECTION('',(-0.,-0.,-1.));
#1172 = ORIENTED_EDGE('',*,*,#1173,.F.);
#1173 = EDGE_CURVE('',#1174,#1166,#1176,.T.);
#1174 = VERTEX_POINT('',#1175);
#1175 = CARTESIAN_POINT('',(21.5,2.75,2.1));
#1176 = LINE('',#1177,#1178);
#1177 = CARTESIAN_POINT('',(21.5,4.75,2.1));
#1178 = VECTOR('',#1179,1.);
#1179 = DIRECTION('',(0.,1.,0.));
#1180 = ORIENTED_EDGE('',*,*,#1181,.T.);
#1181 = EDGE_CURVE('',#1174,#498,#1182,.T.);
#1182 = LINE('',#1183,#1184);
#1183 = CARTESIAN_POINT('',(21.5,2.75,2.1));
#1184 = VECTOR('',#1185,1.);
#1185 = DIRECTION('',(-0.,-0.,-1.));
#1186 = PLANE('',#1187);
#1187 = AXIS2_PLACEMENT_3D('',#1188,#1189,#1190);
#1188 = CARTESIAN_POINT('',(21.5,4.75,2.1));
#1189 = DIRECTION('',(-1.,0.,0.));
#1190 = DIRECTION('',(0.,0.,1.));
#1191 = ADVANCED_FACE('',(#1192),#1210,.F.);
#1192 = FACE_BOUND('',#1193,.T.);
#1193 = EDGE_LOOP('',(#1194,#1195,#1203,#1209));
#1194 = ORIENTED_EDGE('',*,*,#487,.T.);
#1195 = ORIENTED_EDGE('',*,*,#1196,.F.);
#1196 = EDGE_CURVE('',#1197,#490,#1199,.T.);
#1197 = VERTEX_POINT('',#1198);
#1198 = CARTESIAN_POINT('',(20.5,4.75,2.1));
#1199 = LINE('',#1200,#1201);
#1200 = CARTESIAN_POINT('',(20.5,4.75,2.1));
#1201 = VECTOR('',#1202,1.);
#1202 = DIRECTION('',(-0.,-0.,-1.));
#1203 = ORIENTED_EDGE('',*,*,#1204,.F.);
#1204 = EDGE_CURVE('',#1166,#1197,#1205,.T.);
#1205 = LINE('',#1206,#1207);
#1206 = CARTESIAN_POINT('',(20.5,4.75,2.1));
#1207 = VECTOR('',#1208,1.);
#1208 = DIRECTION('',(-1.,-0.,-0.));
#1209 = ORIENTED_EDGE('',*,*,#1165,.T.);
#1210 = PLANE('',#1211);
#1211 = AXIS2_PLACEMENT_3D('',#1212,#1213,#1214);
#1212 = CARTESIAN_POINT('',(20.5,4.75,2.1));
#1213 = DIRECTION('',(0.,-1.,0.));
#1214 = DIRECTION('',(0.,0.,-1.));
#1215 = ADVANCED_FACE('',(#1216),#1234,.F.);
#1216 = FACE_BOUND('',#1217,.T.);
#1217 = EDGE_LOOP('',(#1218,#1219,#1227,#1233));
#1218 = ORIENTED_EDGE('',*,*,#513,.T.);
#1219 = ORIENTED_EDGE('',*,*,#1220,.F.);
#1220 = EDGE_CURVE('',#1221,#506,#1223,.T.);
#1221 = VERTEX_POINT('',#1222);
#1222 = CARTESIAN_POINT('',(20.5,2.75,2.1));
#1223 = LINE('',#1224,#1225);
#1224 = CARTESIAN_POINT('',(20.5,2.75,2.1));
#1225 = VECTOR('',#1226,1.);
#1226 = DIRECTION('',(-0.,-0.,-1.));
#1227 = ORIENTED_EDGE('',*,*,#1228,.F.);
#1228 = EDGE_CURVE('',#1197,#1221,#1229,.T.);
#1229 = LINE('',#1230,#1231);
#1230 = CARTESIAN_POINT('',(20.5,4.75,2.1));
#1231 = VECTOR('',#1232,1.);
#1232 = DIRECTION('',(4.336808689942E-16,-1.,0.));
#1233 = ORIENTED_EDGE('',*,*,#1196,.T.);
#1234 = PLANE('',#1235);
#1235 = AXIS2_PLACEMENT_3D('',#1236,#1237,#1238);
#1236 = CARTESIAN_POINT('',(20.5,4.75,2.1));
#1237 = DIRECTION('',(1.,4.336808689942E-16,0.));
#1238 = DIRECTION('',(-4.336808689942E-16,1.,0.));
#1239 = ADVANCED_FACE('',(#1240),#1251,.F.);
#1240 = FACE_BOUND('',#1241,.T.);
#1241 = EDGE_LOOP('',(#1242,#1243,#1244,#1250));
#1242 = ORIENTED_EDGE('',*,*,#505,.T.);
#1243 = ORIENTED_EDGE('',*,*,#1181,.F.);
#1244 = ORIENTED_EDGE('',*,*,#1245,.F.);
#1245 = EDGE_CURVE('',#1221,#1174,#1246,.T.);
#1246 = LINE('',#1247,#1248);
#1247 = CARTESIAN_POINT('',(20.5,2.75,2.1));
#1248 = VECTOR('',#1249,1.);
#1249 = DIRECTION('',(1.,0.,0.));
#1250 = ORIENTED_EDGE('',*,*,#1220,.T.);
#1251 = PLANE('',#1252);
#1252 = AXIS2_PLACEMENT_3D('',#1253,#1254,#1255);
#1253 = CARTESIAN_POINT('',(20.5,2.75,2.1));
#1254 = DIRECTION('',(0.,1.,0.));
#1255 = DIRECTION('',(0.,0.,1.));
#1256 = ADVANCED_FACE('',(#1257),#1263,.T.);
#1257 = FACE_BOUND('',#1258,.T.);
#1258 = EDGE_LOOP('',(#1259,#1260,#1261,#1262));
#1259 = ORIENTED_EDGE('',*,*,#1173,.T.);
#1260 = ORIENTED_EDGE('',*,*,#1204,.T.);
#1261 = ORIENTED_EDGE('',*,*,#1228,.T.);
#1262 = ORIENTED_EDGE('',*,*,#1245,.T.);
#1263 = PLANE('',#1264);
#1264 = AXIS2_PLACEMENT_3D('',#1265,#1266,#1267);
#1265 = CARTESIAN_POINT('',(14.,10.,2.1));
#1266 = DIRECTION('',(0.,0.,1.));
#1267 = DIRECTION('',(1.,0.,0.));
#1268 = MANIFOLD_SOLID_BREP('',#1269);
#1269 = CLOSED_SHELL('',(#1270,#1312,#1354,#1378,#1398,#1408,#1426));
#1270 = ADVANCED_FACE('',(#1271),#1307,.F.);
#1271 = FACE_BOUND('',#1272,.F.);
#1272 = EDGE_LOOP('',(#1273,#1283,#1292,#1300));
#1273 = ORIENTED_EDGE('',*,*,#1274,.T.);
#1274 = EDGE_CURVE('',#1275,#1277,#1279,.T.);
#1275 = VERTEX_POINT('',#1276);
#1276 = CARTESIAN_POINT('',(19.,10.,2.1));
#1277 = VERTEX_POINT('',#1278);
#1278 = CARTESIAN_POINT('',(19.,10.,15.1));
#1279 = LINE('',#1280,#1281);
#1280 = CARTESIAN_POINT('',(19.,10.,2.1));
#1281 = VECTOR('',#1282,1.);
#1282 = DIRECTION('',(0.,0.,1.));
#1283 = ORIENTED_EDGE('',*,*,#1284,.F.);
#1284 = EDGE_CURVE('',#1285,#1277,#1287,.T.);
#1285 = VERTEX_POINT('',#1286);
#1286 = CARTESIAN_POINT('',(1.,10.,15.1));
#1287 = CIRCLE('',#1288,9.);
#1288 = AXIS2_PLACEMENT_3D('',#1289,#1290,#1291);
#1289 = CARTESIAN_POINT('',(10.,10.,15.1));
#1290 = DIRECTION('',(0.,0.,1.));
#1291 = DIRECTION('',(1.,0.,0.));
#1292 = ORIENTED_EDGE('',*,*,#1293,.F.);
#1293 = EDGE_CURVE('',#1294,#1285,#1296,.T.);
#1294 = VERTEX_POINT('',#1295);
#1295 = CARTESIAN_POINT('',(1.,10.,2.1));
#1296 = LINE('',#1297,#1298);
#1297 = CARTESIAN_POINT('',(1.,10.,2.1));
#1298 = VECTOR('',#1299,1.);
#1299 = DIRECTION('',(0.,0.,1.));
#1300 = ORIENTED_EDGE('',*,*,#1301,.T.);
#1301 = EDGE_CURVE('',#1294,#1275,#1302,.T.);
#1302 = CIRCLE('',#1303,9.);
#1303 = AXIS2_PLACEMENT_3D('',#1304,#1305,#1306);
#1304 = CARTESIAN_POINT('',(10.,10.,2.1));
#1305 = DIRECTION('',(0.,0.,1.));
#1306 = DIRECTION('',(1.,0.,0.));
#1307 = CYLINDRICAL_SURFACE('',#1308,9.);
#1308 = AXIS2_PLACEMENT_3D('',#1309,#1310,#1311);
#1309 = CARTESIAN_POINT('',(10.,10.,2.1));
#1310 = DIRECTION('',(0.,0.,1.));
#1311 = DIRECTION('',(1.,0.,0.));
#1312 = ADVANCED_FACE('',(#1313),#1349,.T.);
#1313 = FACE_BOUND('',#1314,.T.);
#1314 = EDGE_LOOP('',(#1315,#1326,#1334,#1343));
#1315 = ORIENTED_EDGE('',*,*,#1316,.F.);
#1316 = EDGE_CURVE('',#1317,#1319,#1321,.T.);
#1317 = VERTEX_POINT('',#1318);
#1318 = CARTESIAN_POINT('',(19.5,10.,15.1));
#1319 = VERTEX_POINT('',#1320);
#1320 = CARTESIAN_POINT('',(0.5,10.,15.1));
#1321 = CIRCLE('',#1322,9.5);
#1322 = AXIS2_PLACEMENT_3D('',#1323,#1324,#1325);
#1323 = CARTESIAN_POINT('',(10.,10.,15.1));
#1324 = DIRECTION('',(0.,0.,1.));
#1325 = DIRECTION('',(1.,0.,0.));
#1326 = ORIENTED_EDGE('',*,*,#1327,.T.);
#1327 = EDGE_CURVE('',#1317,#1328,#1330,.T.);
#1328 = VERTEX_POINT('',#1329);
#1329 = CARTESIAN_POINT('',(19.5,10.,1.1));
#1330 = LINE('',#1331,#1332);
#1331 = CARTESIAN_POINT('',(19.5,10.,15.1));
#1332 = VECTOR('',#1333,1.);
#1333 = DIRECTION('',(-0.,-0.,-1.));
#1334 = ORIENTED_EDGE('',*,*,#1335,.T.);
#1335 = EDGE_CURVE('',#1328,#1336,#1338,.T.);
#1336 = VERTEX_POINT('',#1337);
#1337 = CARTESIAN_POINT('',(0.5,10.,1.1));
#1338 = CIRCLE('',#1339,9.5);
#1339 = AXIS2_PLACEMENT_3D('',#1340,#1341,#1342);
#1340 = CARTESIAN_POINT('',(10.,10.,1.1));
#1341 = DIRECTION('',(0.,0.,1.));
#1342 = DIRECTION('',(1.,0.,0.));
#1343 = ORIENTED_EDGE('',*,*,#1344,.F.);
#1344 = EDGE_CURVE('',#1319,#1336,#1345,.T.);
#1345 = LINE('',#1346,#1347);
#1346 = CARTESIAN_POINT('',(0.5,10.,15.1));
#1347 = VECTOR('',#1348,1.);
#1348 = DIRECTION('',(-0.,-0.,-1.));
#1349 = CYLINDRICAL_SURFACE('',#1350,9.5);
#1350 = AXIS2_PLACEMENT_3D('',#1351,#1352,#1353);
#1351 = CARTESIAN_POINT('',(10.,10.,15.1));
#1352 = DIRECTION('',(-0.,-0.,-1.));
#1353 = DIRECTION('',(-1.,0.,0.));
#1354 = ADVANCED_FACE('',(#1355),#1373,.T.);
#1355 = FACE_BOUND('',#1356,.T.);
#1356 = EDGE_LOOP('',(#1357,#1358,#1365,#1366));
#1357 = ORIENTED_EDGE('',*,*,#1327,.F.);
#1358 = ORIENTED_EDGE('',*,*,#1359,.F.);
#1359 = EDGE_CURVE('',#1319,#1317,#1360,.T.);
#1360 = CIRCLE('',#1361,9.5);
#1361 = AXIS2_PLACEMENT_3D('',#1362,#1363,#1364);
#1362 = CARTESIAN_POINT('',(10.,10.,15.1));
#1363 = DIRECTION('',(0.,0.,1.));
#1364 = DIRECTION('',(1.,0.,0.));
#1365 = ORIENTED_EDGE('',*,*,#1344,.T.);
#1366 = ORIENTED_EDGE('',*,*,#1367,.T.);
#1367 = EDGE_CURVE('',#1336,#1328,#1368,.T.);
#1368 = CIRCLE('',#1369,9.5);
#1369 = AXIS2_PLACEMENT_3D('',#1370,#1371,#1372);
#1370 = CARTESIAN_POINT('',(10.,10.,1.1));
#1371 = DIRECTION('',(0.,0.,1.));
#1372 = DIRECTION('',(1.,0.,0.));
#1373 = CYLINDRICAL_SURFACE('',#1374,9.5);
#1374 = AXIS2_PLACEMENT_3D('',#1375,#1376,#1377);
#1375 = CARTESIAN_POINT('',(10.,10.,15.1));
#1376 = DIRECTION('',(-0.,-0.,-1.));
#1377 = DIRECTION('',(-1.,0.,0.));
#1378 = ADVANCED_FACE('',(#1379,#1389),#1393,.T.);
#1379 = FACE_BOUND('',#1380,.T.);
#1380 = EDGE_LOOP('',(#1381,#1388));
#1381 = ORIENTED_EDGE('',*,*,#1382,.F.);
#1382 = EDGE_CURVE('',#1277,#1285,#1383,.T.);
#1383 = CIRCLE('',#1384,9.);
#1384 = AXIS2_PLACEMENT_3D('',#1385,#1386,#1387);
#1385 = CARTESIAN_POINT('',(10.,10.,15.1));
#1386 = DIRECTION('',(0.,0.,1.));
#1387 = DIRECTION('',(1.,0.,0.));
#1388 = ORIENTED_EDGE('',*,*,#1284,.F.);
#1389 = FACE_BOUND('',#1390,.T.);
#1390 = EDGE_LOOP('',(#1391,#1392));
#1391 = ORIENTED_EDGE('',*,*,#1359,.T.);
#1392 = ORIENTED_EDGE('',*,*,#1316,.T.);
#1393 = PLANE('',#1394);
#1394 = AXIS2_PLACEMENT_3D('',#1395,#1396,#1397);
#1395 = CARTESIAN_POINT('',(10.,10.,15.1));
#1396 = DIRECTION('',(0.,0.,1.));
#1397 = DIRECTION('',(1.,0.,0.));
#1398 = ADVANCED_FACE('',(#1399),#1403,.F.);
#1399 = FACE_BOUND('',#1400,.T.);
#1400 = EDGE_LOOP('',(#1401,#1402));
#1401 = ORIENTED_EDGE('',*,*,#1367,.F.);
#1402 = ORIENTED_EDGE('',*,*,#1335,.F.);
#1403 = PLANE('',#1404);
#1404 = AXIS2_PLACEMENT_3D('',#1405,#1406,#1407);
#1405 = CARTESIAN_POINT('',(10.,10.,1.1));
#1406 = DIRECTION('',(0.,0.,1.));
#1407 = DIRECTION('',(1.,0.,0.));
#1408 = ADVANCED_FACE('',(#1409),#1421,.F.);
#1409 = FACE_BOUND('',#1410,.F.);
#1410 = EDGE_LOOP('',(#1411,#1412,#1413,#1420));
#1411 = ORIENTED_EDGE('',*,*,#1382,.F.);
#1412 = ORIENTED_EDGE('',*,*,#1274,.F.);
#1413 = ORIENTED_EDGE('',*,*,#1414,.T.);
#1414 = EDGE_CURVE('',#1275,#1294,#1415,.T.);
#1415 = CIRCLE('',#1416,9.);
#1416 = AXIS2_PLACEMENT_3D('',#1417,#1418,#1419);
#1417 = CARTESIAN_POINT('',(10.,10.,2.1));
#1418 = DIRECTION('',(0.,0.,1.));
#1419 = DIRECTION('',(1.,0.,0.));
#1420 = ORIENTED_EDGE('',*,*,#1293,.T.);
#1421 = CYLINDRICAL_SURFACE('',#1422,9.);
#1422 = AXIS2_PLACEMENT_3D('',#1423,#1424,#1425);
#1423 = CARTESIAN_POINT('',(10.,10.,2.1));
#1424 = DIRECTION('',(0.,0.,1.));
#1425 = DIRECTION('',(1.,0.,0.));
#1426 = ADVANCED_FACE('',(#1427),#1431,.T.);
#1427 = FACE_BOUND('',#1428,.T.);
#1428 = EDGE_LOOP('',(#1429,#1430));
#1429 = ORIENTED_EDGE('',*,*,#1414,.T.);
#1430 = ORIENTED_EDGE('',*,*,#1301,.T.);
#1431 = PLANE('',#1432);
#1432 = AXIS2_PLACEMENT_3D('',#1433,#1434,#1435);
#1433 = CARTESIAN_POINT('',(10.,10.,2.1));
#1434 = DIRECTION('',(0.,0.,1.));
#1435 = DIRECTION('',(1.,0.,0.));
#1436 = MANIFOLD_SOLID_BREP('',#1437);
#1437 = CLOSED_SHELL('',(#1438,#1480,#1522,#1546,#1566,#1576,#1594));
#1438 = ADVANCED_FACE('',(#1439),#1475,.F.);
#1439 = FACE_BOUND('',#1440,.F.);
#1440 = EDGE_LOOP('',(#1441,#1451,#1460,#1468));
#1441 = ORIENTED_EDGE('',*,*,#1442,.T.);
#1442 = EDGE_CURVE('',#1443,#1445,#1447,.T.);
#1443 = VERTEX_POINT('',#1444);
#1444 = CARTESIAN_POINT('',(23.150707289022,16.807658101263,2.1));
#1445 = VERTEX_POINT('',#1446);
#1446 = CARTESIAN_POINT('',(23.150707289022,16.807658101263,9.1));
#1447 = LINE('',#1448,#1449);
#1448 = CARTESIAN_POINT('',(23.150707289022,16.807658101263,2.1));
#1449 = VECTOR('',#1450,1.);
#1450 = DIRECTION('',(0.,0.,1.));
#1451 = ORIENTED_EDGE('',*,*,#1452,.F.);
#1452 = EDGE_CURVE('',#1453,#1445,#1455,.T.);
#1453 = VERTEX_POINT('',#1454);
#1454 = CARTESIAN_POINT('',(18.150707289022,16.807658101263,9.1));
#1455 = CIRCLE('',#1456,2.5);
#1456 = AXIS2_PLACEMENT_3D('',#1457,#1458,#1459);
#1457 = CARTESIAN_POINT('',(20.650707289022,16.807658101263,9.1));
#1458 = DIRECTION('',(0.,0.,1.));
#1459 = DIRECTION('',(1.,0.,0.));
#1460 = ORIENTED_EDGE('',*,*,#1461,.F.);
#1461 = EDGE_CURVE('',#1462,#1453,#1464,.T.);
#1462 = VERTEX_POINT('',#1463);
#1463 = CARTESIAN_POINT('',(18.150707289022,16.807658101263,2.1));
#1464 = LINE('',#1465,#1466);
#1465 = CARTESIAN_POINT('',(18.150707289022,16.807658101263,2.1));
#1466 = VECTOR('',#1467,1.);
#1467 = DIRECTION('',(0.,0.,1.));
#1468 = ORIENTED_EDGE('',*,*,#1469,.T.);
#1469 = EDGE_CURVE('',#1462,#1443,#1470,.T.);
#1470 = CIRCLE('',#1471,2.5);
#1471 = AXIS2_PLACEMENT_3D('',#1472,#1473,#1474);
#1472 = CARTESIAN_POINT('',(20.650707289022,16.807658101263,2.1));
#1473 = DIRECTION('',(0.,0.,1.));
#1474 = DIRECTION('',(1.,0.,0.));
#1475 = CYLINDRICAL_SURFACE('',#1476,2.5);
#1476 = AXIS2_PLACEMENT_3D('',#1477,#1478,#1479);
#1477 = CARTESIAN_POINT('',(20.650707289022,16.807658101263,2.1));
#1478 = DIRECTION('',(0.,0.,1.));
#1479 = DIRECTION('',(1.,0.,0.));
#1480 = ADVANCED_FACE('',(#1481),#1517,.T.);
#1481 = FACE_BOUND('',#1482,.T.);
#1482 = EDGE_LOOP('',(#1483,#1494,#1502,#1511));
#1483 = ORIENTED_EDGE('',*,*,#1484,.F.);
#1484 = EDGE_CURVE('',#1485,#1487,#1489,.T.);
#1485 = VERTEX_POINT('',#1486);
#1486 = CARTESIAN_POINT('',(23.650707289022,16.807658101263,9.1));
#1487 = VERTEX_POINT('',#1488);
#1488 = CARTESIAN_POINT('',(17.650707289022,16.807658101263,9.1));
#1489 = CIRCLE('',#1490,3.);
#1490 = AXIS2_PLACEMENT_3D('',#1491,#1492,#1493);
#1491 = CARTESIAN_POINT('',(20.650707289022,16.807658101263,9.1));
#1492 = DIRECTION('',(0.,0.,1.));
#1493 = DIRECTION('',(1.,0.,0.));
#1494 = ORIENTED_EDGE('',*,*,#1495,.T.);
#1495 = EDGE_CURVE('',#1485,#1496,#1498,.T.);
#1496 = VERTEX_POINT('',#1497);
#1497 = CARTESIAN_POINT('',(23.650707289022,16.807658101263,1.1));
#1498 = LINE('',#1499,#1500);
#1499 = CARTESIAN_POINT('',(23.650707289022,16.807658101263,9.1));
#1500 = VECTOR('',#1501,1.);
#1501 = DIRECTION('',(-0.,-0.,-1.));
#1502 = ORIENTED_EDGE('',*,*,#1503,.T.);
#1503 = EDGE_CURVE('',#1496,#1504,#1506,.T.);
#1504 = VERTEX_POINT('',#1505);
#1505 = CARTESIAN_POINT('',(17.650707289022,16.807658101263,1.1));
#1506 = CIRCLE('',#1507,3.);
#1507 = AXIS2_PLACEMENT_3D('',#1508,#1509,#1510);
#1508 = CARTESIAN_POINT('',(20.650707289022,16.807658101263,1.1));
#1509 = DIRECTION('',(0.,0.,1.));
#1510 = DIRECTION('',(1.,0.,0.));
#1511 = ORIENTED_EDGE('',*,*,#1512,.F.);
#1512 = EDGE_CURVE('',#1487,#1504,#1513,.T.);
#1513 = LINE('',#1514,#1515);
#1514 = CARTESIAN_POINT('',(17.650707289022,16.807658101263,9.1));
#1515 = VECTOR('',#1516,1.);
#1516 = DIRECTION('',(-0.,-0.,-1.));
#1517 = CYLINDRICAL_SURFACE('',#1518,3.);
#1518 = AXIS2_PLACEMENT_3D('',#1519,#1520,#1521);
#1519 = CARTESIAN_POINT('',(20.650707289022,16.807658101263,9.1));
#1520 = DIRECTION('',(-0.,-0.,-1.));
#1521 = DIRECTION('',(-1.,0.,0.));
#1522 = ADVANCED_FACE('',(#1523),#1541,.T.);
#1523 = FACE_BOUND('',#1524,.T.);
#1524 = EDGE_LOOP('',(#1525,#1526,#1533,#1534));
#1525 = ORIENTED_EDGE('',*,*,#1495,.F.);
#1526 = ORIENTED_EDGE('',*,*,#1527,.F.);
#1527 = EDGE_CURVE('',#1487,#1485,#1528,.T.);
#1528 = CIRCLE('',#1529,3.);
#1529 = AXIS2_PLACEMENT_3D('',#1530,#1531,#1532);
#1530 = CARTESIAN_POINT('',(20.650707289022,16.807658101263,9.1));
#1531 = DIRECTION('',(0.,0.,1.));
#1532 = DIRECTION('',(1.,0.,0.));
#1533 = ORIENTED_EDGE('',*,*,#1512,.T.);
#1534 = ORIENTED_EDGE('',*,*,#1535,.T.);
#1535 = EDGE_CURVE('',#1504,#1496,#1536,.T.);
#1536 = CIRCLE('',#1537,3.);
#1537 = AXIS2_PLACEMENT_3D('',#1538,#1539,#1540);
#1538 = CARTESIAN_POINT('',(20.650707289022,16.807658101263,1.1));
#1539 = DIRECTION('',(0.,0.,1.));
#1540 = DIRECTION('',(1.,0.,0.));
#1541 = CYLINDRICAL_SURFACE('',#1542,3.);
#1542 = AXIS2_PLACEMENT_3D('',#1543,#1544,#1545);
#1543 = CARTESIAN_POINT('',(20.650707289022,16.807658101263,9.1));
#1544 = DIRECTION('',(-0.,-0.,-1.));
#1545 = DIRECTION('',(-1.,0.,0.));
#1546 = ADVANCED_FACE('',(#1547,#1557),#1561,.T.);
#1547 = FACE_BOUND('',#1548,.T.);
#1548 = EDGE_LOOP('',(#1549,#1556));
#1549 = ORIENTED_EDGE('',*,*,#1550,.F.);
#1550 = EDGE_CURVE('',#1445,#1453,#1551,.T.);
#1551 = CIRCLE('',#1552,2.5);
#1552 = AXIS2_PLACEMENT_3D('',#1553,#1554,#1555);
#1553 = CARTESIAN_POINT('',(20.650707289022,16.807658101263,9.1));
#1554 = DIRECTION('',(0.,0.,1.));
#1555 = DIRECTION('',(1.,0.,0.));
#1556 = ORIENTED_EDGE('',*,*,#1452,.F.);
#1557 = FACE_BOUND('',#1558,.T.);
#1558 = EDGE_LOOP('',(#1559,#1560));
#1559 = ORIENTED_EDGE('',*,*,#1527,.T.);
#1560 = ORIENTED_EDGE('',*,*,#1484,.T.);
#1561 = PLANE('',#1562);
#1562 = AXIS2_PLACEMENT_3D('',#1563,#1564,#1565);
#1563 = CARTESIAN_POINT('',(20.650707289022,16.807658101263,9.1));
#1564 = DIRECTION('',(0.,0.,1.));
#1565 = DIRECTION('',(1.,0.,0.));
#1566 = ADVANCED_FACE('',(#1567),#1571,.F.);
#1567 = FACE_BOUND('',#1568,.T.);
#1568 = EDGE_LOOP('',(#1569,#1570));
#1569 = ORIENTED_EDGE('',*,*,#1535,.F.);
#1570 = ORIENTED_EDGE('',*,*,#1503,.F.);
#1571 = PLANE('',#1572);
#1572 = AXIS2_PLACEMENT_3D('',#1573,#1574,#1575);
#1573 = CARTESIAN_POINT('',(20.650707289022,16.807658101263,1.1));
#1574 = DIRECTION('',(0.,0.,1.));
#1575 = DIRECTION('',(1.,0.,0.));
#1576 = ADVANCED_FACE('',(#1577),#1589,.F.);
#1577 = FACE_BOUND('',#1578,.F.);
#1578 = EDGE_LOOP('',(#1579,#1580,#1581,#1588));
#1579 = ORIENTED_EDGE('',*,*,#1550,.F.);
#1580 = ORIENTED_EDGE('',*,*,#1442,.F.);
#1581 = ORIENTED_EDGE('',*,*,#1582,.T.);
#1582 = EDGE_CURVE('',#1443,#1462,#1583,.T.);
#1583 = CIRCLE('',#1584,2.5);
#1584 = AXIS2_PLACEMENT_3D('',#1585,#1586,#1587);
#1585 = CARTESIAN_POINT('',(20.650707289022,16.807658101263,2.1));
#1586 = DIRECTION('',(0.,0.,1.));
#1587 = DIRECTION('',(1.,0.,0.));
#1588 = ORIENTED_EDGE('',*,*,#1461,.T.);
#1589 = CYLINDRICAL_SURFACE('',#1590,2.5);
#1590 = AXIS2_PLACEMENT_3D('',#1591,#1592,#1593);
#1591 = CARTESIAN_POINT('',(20.650707289022,16.807658101263,2.1));
#1592 = DIRECTION('',(0.,0.,1.));
#1593 = DIRECTION('',(1.,0.,0.));
#1594 = ADVANCED_FACE('',(#1595),#1599,.T.);
#1595 = FACE_BOUND('',#1596,.T.);
#1596 = EDGE_LOOP('',(#1597,#1598));
#1597 = ORIENTED_EDGE('',*,*,#1582,.T.);
#1598 = ORIENTED_EDGE('',*,*,#1469,.T.);
#1599 = PLANE('',#1600);
#1600 = AXIS2_PLACEMENT_3D('',#1601,#1602,#1603);
#1601 = CARTESIAN_POINT('',(20.650707289022,16.807658101263,2.1));
#1602 = DIRECTION('',(0.,0.,1.));
#1603 = DIRECTION('',(1.,0.,0.));
#1604 = MANIFOLD_SOLID_BREP('',#1605);
#1605 = CLOSED_SHELL('',(#1606,#1650,#1692,#1724,#1748,#1768,#1784,#1802
    ,#1812));
#1606 = ADVANCED_FACE('',(#1607),#1645,.T.);
#1607 = FACE_BOUND('',#1608,.T.);
#1608 = EDGE_LOOP('',(#1609,#1620,#1629,#1638));
#1609 = ORIENTED_EDGE('',*,*,#1610,.F.);
#1610 = EDGE_CURVE('',#1611,#1613,#1615,.T.);
#1611 = VERTEX_POINT('',#1612);
#1612 = CARTESIAN_POINT('',(3.017190799099,10.490281208906,
    10.699391096528));
#1613 = VERTEX_POINT('',#1614);
#1614 = CARTESIAN_POINT('',(16.982809200901,9.509718791094,
    10.699391096528));
#1615 = CIRCLE('',#1616,7.);
#1616 = AXIS2_PLACEMENT_3D('',#1617,#1618,#1619);
#1617 = CARTESIAN_POINT('',(10.,10.,10.699391096528));
#1618 = DIRECTION('',(0.,-0.,-1.));
#1619 = DIRECTION('',(0.997544171557,-7.004017270086E-02,0.));
#1620 = ORIENTED_EDGE('',*,*,#1621,.T.);
#1621 = EDGE_CURVE('',#1611,#1622,#1624,.T.);
#1622 = VERTEX_POINT('',#1623);
#1623 = CARTESIAN_POINT('',(1.022102455984,10.630361554308,
    12.699391096528));
#1624 = CIRCLE('',#1625,2.);
#1625 = AXIS2_PLACEMENT_3D('',#1626,#1627,#1628);
#1626 = CARTESIAN_POINT('',(3.017190799099,10.490281208906,
    12.699391096528));
#1627 = DIRECTION('',(7.004017270086E-02,0.997544171557,-0.));
#1628 = DIRECTION('',(-0.997544171557,7.004017270086E-02,0.));
#1629 = ORIENTED_EDGE('',*,*,#1630,.F.);
#1630 = EDGE_CURVE('',#1631,#1622,#1633,.T.);
#1631 = VERTEX_POINT('',#1632);
#1632 = CARTESIAN_POINT('',(18.977897544016,9.369638445692,
    12.699391096528));
#1633 = CIRCLE('',#1634,9.);
#1634 = AXIS2_PLACEMENT_3D('',#1635,#1636,#1637);
#1635 = CARTESIAN_POINT('',(10.,10.,12.699391096528));
#1636 = DIRECTION('',(-0.,0.,1.));
#1637 = DIRECTION('',(0.997544171557,-7.004017270086E-02,0.));
#1638 = ORIENTED_EDGE('',*,*,#1639,.F.);
#1639 = EDGE_CURVE('',#1613,#1631,#1640,.T.);
#1640 = CIRCLE('',#1641,2.);
#1641 = AXIS2_PLACEMENT_3D('',#1642,#1643,#1644);
#1642 = CARTESIAN_POINT('',(16.982809200901,9.509718791094,
    12.699391096528));
#1643 = DIRECTION('',(-7.004017270086E-02,-0.997544171557,-0.));
#1644 = DIRECTION('',(0.,0.,-1.));
#1645 = TOROIDAL_SURFACE('',#1646,7.,2.);
#1646 = AXIS2_PLACEMENT_3D('',#1647,#1648,#1649);
#1647 = CARTESIAN_POINT('',(10.,10.,12.699391096528));
#1648 = DIRECTION('',(0.,0.,1.));
#1649 = DIRECTION('',(0.997544171557,-7.004017270086E-02,0.));
#1650 = ADVANCED_FACE('',(#1651),#1687,.F.);
#1651 = FACE_BOUND('',#1652,.F.);
#1652 = EDGE_LOOP('',(#1653,#1663,#1672,#1680));
#1653 = ORIENTED_EDGE('',*,*,#1654,.T.);
#1654 = EDGE_CURVE('',#1655,#1657,#1659,.T.);
#1655 = VERTEX_POINT('',#1656);
#1656 = CARTESIAN_POINT('',(17.48158128668,9.474698704744,
    12.699391096528));
#1657 = VERTEX_POINT('',#1658);
#1658 = CARTESIAN_POINT('',(17.48158128668,9.474698704744,
    14.699391096528));
#1659 = LINE('',#1660,#1661);
#1660 = CARTESIAN_POINT('',(17.48158128668,9.474698704744,
    12.699391096528));
#1661 = VECTOR('',#1662,1.);
#1662 = DIRECTION('',(0.,0.,1.));
#1663 = ORIENTED_EDGE('',*,*,#1664,.F.);
#1664 = EDGE_CURVE('',#1665,#1657,#1667,.T.);
#1665 = VERTEX_POINT('',#1666);
#1666 = CARTESIAN_POINT('',(2.51841871332,10.525301295256,
    14.699391096528));
#1667 = CIRCLE('',#1668,7.5);
#1668 = AXIS2_PLACEMENT_3D('',#1669,#1670,#1671);
#1669 = CARTESIAN_POINT('',(10.,10.,14.699391096528));
#1670 = DIRECTION('',(-0.,0.,1.));
#1671 = DIRECTION('',(0.997544171557,-7.004017270086E-02,0.));
#1672 = ORIENTED_EDGE('',*,*,#1673,.F.);
#1673 = EDGE_CURVE('',#1674,#1665,#1676,.T.);
#1674 = VERTEX_POINT('',#1675);
#1675 = CARTESIAN_POINT('',(2.51841871332,10.525301295256,
    12.699391096528));
#1676 = LINE('',#1677,#1678);
#1677 = CARTESIAN_POINT('',(2.51841871332,10.525301295256,
    12.699391096528));
#1678 = VECTOR('',#1679,1.);
#1679 = DIRECTION('',(0.,0.,1.));
#1680 = ORIENTED_EDGE('',*,*,#1681,.T.);
#1681 = EDGE_CURVE('',#1674,#1655,#1682,.T.);
#1682 = CIRCLE('',#1683,7.5);
#1683 = AXIS2_PLACEMENT_3D('',#1684,#1685,#1686);
#1684 = CARTESIAN_POINT('',(10.,10.,12.699391096528));
#1685 = DIRECTION('',(-0.,0.,1.));
#1686 = DIRECTION('',(0.997544171557,-7.004017270086E-02,0.));
#1687 = CYLINDRICAL_SURFACE('',#1688,7.5);
#1688 = AXIS2_PLACEMENT_3D('',#1689,#1690,#1691);
#1689 = CARTESIAN_POINT('',(10.,10.,12.699391096528));
#1690 = DIRECTION('',(0.,0.,1.));
#1691 = DIRECTION('',(0.997544171557,-7.004017270086E-02,0.));
#1692 = ADVANCED_FACE('',(#1693),#1719,.T.);
#1693 = FACE_BOUND('',#1694,.T.);
#1694 = EDGE_LOOP('',(#1695,#1706,#1712,#1713));
#1695 = ORIENTED_EDGE('',*,*,#1696,.F.);
#1696 = EDGE_CURVE('',#1697,#1699,#1701,.T.);
#1697 = VERTEX_POINT('',#1698);
#1698 = CARTESIAN_POINT('',(18.977897544016,9.369638445692,
    14.699391096528));
#1699 = VERTEX_POINT('',#1700);
#1700 = CARTESIAN_POINT('',(1.022102455984,10.630361554308,
    14.699391096528));
#1701 = CIRCLE('',#1702,9.);
#1702 = AXIS2_PLACEMENT_3D('',#1703,#1704,#1705);
#1703 = CARTESIAN_POINT('',(10.,10.,14.699391096528));
#1704 = DIRECTION('',(-0.,0.,1.));
#1705 = DIRECTION('',(0.997544171557,-7.004017270086E-02,0.));
#1706 = ORIENTED_EDGE('',*,*,#1707,.T.);
#1707 = EDGE_CURVE('',#1697,#1631,#1708,.T.);
#1708 = LINE('',#1709,#1710);
#1709 = CARTESIAN_POINT('',(18.977897544016,9.369638445692,
    14.699391096528));
#1710 = VECTOR('',#1711,1.);
#1711 = DIRECTION('',(-0.,0.,-1.));
#1712 = ORIENTED_EDGE('',*,*,#1630,.T.);
#1713 = ORIENTED_EDGE('',*,*,#1714,.F.);
#1714 = EDGE_CURVE('',#1699,#1622,#1715,.T.);
#1715 = LINE('',#1716,#1717);
#1716 = CARTESIAN_POINT('',(1.022102455984,10.630361554308,
    14.699391096528));
#1717 = VECTOR('',#1718,1.);
#1718 = DIRECTION('',(-0.,0.,-1.));
#1719 = CYLINDRICAL_SURFACE('',#1720,9.);
#1720 = AXIS2_PLACEMENT_3D('',#1721,#1722,#1723);
#1721 = CARTESIAN_POINT('',(10.,10.,14.699391096528));
#1722 = DIRECTION('',(-0.,0.,-1.));
#1723 = DIRECTION('',(-0.997544171557,7.004017270086E-02,0.));
#1724 = ADVANCED_FACE('',(#1725),#1743,.T.);
#1725 = FACE_BOUND('',#1726,.T.);
#1726 = EDGE_LOOP('',(#1727,#1728,#1735,#1736));
#1727 = ORIENTED_EDGE('',*,*,#1707,.F.);
#1728 = ORIENTED_EDGE('',*,*,#1729,.F.);
#1729 = EDGE_CURVE('',#1699,#1697,#1730,.T.);
#1730 = CIRCLE('',#1731,9.);
#1731 = AXIS2_PLACEMENT_3D('',#1732,#1733,#1734);
#1732 = CARTESIAN_POINT('',(10.,10.,14.699391096528));
#1733 = DIRECTION('',(-0.,0.,1.));
#1734 = DIRECTION('',(0.997544171557,-7.004017270086E-02,0.));
#1735 = ORIENTED_EDGE('',*,*,#1714,.T.);
#1736 = ORIENTED_EDGE('',*,*,#1737,.T.);
#1737 = EDGE_CURVE('',#1622,#1631,#1738,.T.);
#1738 = CIRCLE('',#1739,9.);
#1739 = AXIS2_PLACEMENT_3D('',#1740,#1741,#1742);
#1740 = CARTESIAN_POINT('',(10.,10.,12.699391096528));
#1741 = DIRECTION('',(-0.,0.,1.));
#1742 = DIRECTION('',(0.997544171557,-7.004017270086E-02,0.));
#1743 = CYLINDRICAL_SURFACE('',#1744,9.);
#1744 = AXIS2_PLACEMENT_3D('',#1745,#1746,#1747);
#1745 = CARTESIAN_POINT('',(10.,10.,14.699391096528));
#1746 = DIRECTION('',(-0.,0.,-1.));
#1747 = DIRECTION('',(-0.997544171557,7.004017270086E-02,0.));
#1748 = ADVANCED_FACE('',(#1749,#1759),#1763,.T.);
#1749 = FACE_BOUND('',#1750,.T.);
#1750 = EDGE_LOOP('',(#1751,#1758));
#1751 = ORIENTED_EDGE('',*,*,#1752,.F.);
#1752 = EDGE_CURVE('',#1657,#1665,#1753,.T.);
#1753 = CIRCLE('',#1754,7.5);
#1754 = AXIS2_PLACEMENT_3D('',#1755,#1756,#1757);
#1755 = CARTESIAN_POINT('',(10.,10.,14.699391096528));
#1756 = DIRECTION('',(-0.,0.,1.));
#1757 = DIRECTION('',(0.997544171557,-7.004017270086E-02,0.));
#1758 = ORIENTED_EDGE('',*,*,#1664,.F.);
#1759 = FACE_BOUND('',#1760,.T.);
#1760 = EDGE_LOOP('',(#1761,#1762));
#1761 = ORIENTED_EDGE('',*,*,#1729,.T.);
#1762 = ORIENTED_EDGE('',*,*,#1696,.T.);
#1763 = PLANE('',#1764);
#1764 = AXIS2_PLACEMENT_3D('',#1765,#1766,#1767);
#1765 = CARTESIAN_POINT('',(10.,10.,14.699391096528));
#1766 = DIRECTION('',(0.,0.,1.));
#1767 = DIRECTION('',(0.997544171557,-7.004017270086E-02,0.));
#1768 = ADVANCED_FACE('',(#1769),#1779,.F.);
#1769 = FACE_BOUND('',#1770,.T.);
#1770 = EDGE_LOOP('',(#1771,#1778));
#1771 = ORIENTED_EDGE('',*,*,#1772,.T.);
#1772 = EDGE_CURVE('',#1613,#1611,#1773,.T.);
#1773 = CIRCLE('',#1774,7.);
#1774 = AXIS2_PLACEMENT_3D('',#1775,#1776,#1777);
#1775 = CARTESIAN_POINT('',(10.,10.,10.699391096528));
#1776 = DIRECTION('',(0.,-0.,-1.));
#1777 = DIRECTION('',(0.997544171557,-7.004017270086E-02,0.));
#1778 = ORIENTED_EDGE('',*,*,#1610,.T.);
#1779 = PLANE('',#1780);
#1780 = AXIS2_PLACEMENT_3D('',#1781,#1782,#1783);
#1781 = CARTESIAN_POINT('',(10.,10.,10.699391096528));
#1782 = DIRECTION('',(0.,0.,1.));
#1783 = DIRECTION('',(0.997544171557,-7.004017270086E-02,0.));
#1784 = ADVANCED_FACE('',(#1785),#1797,.F.);
#1785 = FACE_BOUND('',#1786,.F.);
#1786 = EDGE_LOOP('',(#1787,#1788,#1789,#1796));
#1787 = ORIENTED_EDGE('',*,*,#1752,.F.);
#1788 = ORIENTED_EDGE('',*,*,#1654,.F.);
#1789 = ORIENTED_EDGE('',*,*,#1790,.T.);
#1790 = EDGE_CURVE('',#1655,#1674,#1791,.T.);
#1791 = CIRCLE('',#1792,7.5);
#1792 = AXIS2_PLACEMENT_3D('',#1793,#1794,#1795);
#1793 = CARTESIAN_POINT('',(10.,10.,12.699391096528));
#1794 = DIRECTION('',(-0.,0.,1.));
#1795 = DIRECTION('',(0.997544171557,-7.004017270086E-02,0.));
#1796 = ORIENTED_EDGE('',*,*,#1673,.T.);
#1797 = CYLINDRICAL_SURFACE('',#1798,7.5);
#1798 = AXIS2_PLACEMENT_3D('',#1799,#1800,#1801);
#1799 = CARTESIAN_POINT('',(10.,10.,12.699391096528));
#1800 = DIRECTION('',(0.,0.,1.));
#1801 = DIRECTION('',(0.997544171557,-7.004017270086E-02,0.));
#1802 = ADVANCED_FACE('',(#1803),#1807,.T.);
#1803 = FACE_BOUND('',#1804,.T.);
#1804 = EDGE_LOOP('',(#1805,#1806));
#1805 = ORIENTED_EDGE('',*,*,#1790,.T.);
#1806 = ORIENTED_EDGE('',*,*,#1681,.T.);
#1807 = PLANE('',#1808);
#1808 = AXIS2_PLACEMENT_3D('',#1809,#1810,#1811);
#1809 = CARTESIAN_POINT('',(10.,10.,12.699391096528));
#1810 = DIRECTION('',(0.,0.,1.));
#1811 = DIRECTION('',(0.997544171557,-7.004017270086E-02,0.));
#1812 = ADVANCED_FACE('',(#1813),#1819,.T.);
#1813 = FACE_BOUND('',#1814,.T.);
#1814 = EDGE_LOOP('',(#1815,#1816,#1817,#1818));
#1815 = ORIENTED_EDGE('',*,*,#1621,.F.);
#1816 = ORIENTED_EDGE('',*,*,#1772,.F.);
#1817 = ORIENTED_EDGE('',*,*,#1639,.T.);
#1818 = ORIENTED_EDGE('',*,*,#1737,.F.);
#1819 = TOROIDAL_SURFACE('',#1820,7.,2.);
#1820 = AXIS2_PLACEMENT_3D('',#1821,#1822,#1823);
#1821 = CARTESIAN_POINT('',(10.,10.,12.699391096528));
#1822 = DIRECTION('',(0.,0.,1.));
#1823 = DIRECTION('',(0.997544171557,-7.004017270086E-02,0.));
#1824 = MANIFOLD_SOLID_BREP('',#1825);
#1825 = CLOSED_SHELL('',(#1826,#1868,#1892,#1902));
#1826 = ADVANCED_FACE('',(#1827),#1863,.T.);
#1827 = FACE_BOUND('',#1828,.T.);
#1828 = EDGE_LOOP('',(#1829,#1840,#1848,#1857));
#1829 = ORIENTED_EDGE('',*,*,#1830,.F.);
#1830 = EDGE_CURVE('',#1831,#1833,#1835,.T.);
#1831 = VERTEX_POINT('',#1832);
#1832 = CARTESIAN_POINT('',(23.150346291805,16.850141695372,8.4));
#1833 = VERTEX_POINT('',#1834);
#1834 = CARTESIAN_POINT('',(18.15106828624,16.765174507155,8.4));
#1835 = CIRCLE('',#1836,2.5);
#1836 = AXIS2_PLACEMENT_3D('',#1837,#1838,#1839);
#1837 = CARTESIAN_POINT('',(20.650707289022,16.807658101263,8.4));
#1838 = DIRECTION('',(0.,-0.,1.));
#1839 = DIRECTION('',(0.999855601113,1.699343764352E-02,0.));
#1840 = ORIENTED_EDGE('',*,*,#1841,.T.);
#1841 = EDGE_CURVE('',#1831,#1842,#1844,.T.);
#1842 = VERTEX_POINT('',#1843);
#1843 = CARTESIAN_POINT('',(23.150346291805,16.850141695372,6.9));
#1844 = LINE('',#1845,#1846);
#1845 = CARTESIAN_POINT('',(23.150346291805,16.850141695372,8.4));
#1846 = VECTOR('',#1847,1.);
#1847 = DIRECTION('',(0.,-0.,-1.));
#1848 = ORIENTED_EDGE('',*,*,#1849,.T.);
#1849 = EDGE_CURVE('',#1842,#1850,#1852,.T.);
#1850 = VERTEX_POINT('',#1851);
#1851 = CARTESIAN_POINT('',(18.15106828624,16.765174507155,6.9));
#1852 = CIRCLE('',#1853,2.5);
#1853 = AXIS2_PLACEMENT_3D('',#1854,#1855,#1856);
#1854 = CARTESIAN_POINT('',(20.650707289022,16.807658101263,6.9));
#1855 = DIRECTION('',(0.,-0.,1.));
#1856 = DIRECTION('',(0.999855601113,1.699343764352E-02,0.));
#1857 = ORIENTED_EDGE('',*,*,#1858,.F.);
#1858 = EDGE_CURVE('',#1833,#1850,#1859,.T.);
#1859 = LINE('',#1860,#1861);
#1860 = CARTESIAN_POINT('',(18.15106828624,16.765174507155,8.4));
#1861 = VECTOR('',#1862,1.);
#1862 = DIRECTION('',(0.,-0.,-1.));
#1863 = CYLINDRICAL_SURFACE('',#1864,2.5);
#1864 = AXIS2_PLACEMENT_3D('',#1865,#1866,#1867);
#1865 = CARTESIAN_POINT('',(20.650707289022,16.807658101263,8.4));
#1866 = DIRECTION('',(0.,-0.,-1.));
#1867 = DIRECTION('',(-0.999855601113,-1.699343764352E-02,0.));
#1868 = ADVANCED_FACE('',(#1869),#1887,.T.);
#1869 = FACE_BOUND('',#1870,.T.);
#1870 = EDGE_LOOP('',(#1871,#1872,#1879,#1880));
#1871 = ORIENTED_EDGE('',*,*,#1841,.F.);
#1872 = ORIENTED_EDGE('',*,*,#1873,.F.);
#1873 = EDGE_CURVE('',#1833,#1831,#1874,.T.);
#1874 = CIRCLE('',#1875,2.5);
#1875 = AXIS2_PLACEMENT_3D('',#1876,#1877,#1878);
#1876 = CARTESIAN_POINT('',(20.650707289022,16.807658101263,8.4));
#1877 = DIRECTION('',(0.,-0.,1.));
#1878 = DIRECTION('',(0.999855601113,1.699343764352E-02,0.));
#1879 = ORIENTED_EDGE('',*,*,#1858,.T.);
#1880 = ORIENTED_EDGE('',*,*,#1881,.T.);
#1881 = EDGE_CURVE('',#1850,#1842,#1882,.T.);
#1882 = CIRCLE('',#1883,2.5);
#1883 = AXIS2_PLACEMENT_3D('',#1884,#1885,#1886);
#1884 = CARTESIAN_POINT('',(20.650707289022,16.807658101263,6.9));
#1885 = DIRECTION('',(0.,-0.,1.));
#1886 = DIRECTION('',(0.999855601113,1.699343764352E-02,0.));
#1887 = CYLINDRICAL_SURFACE('',#1888,2.5);
#1888 = AXIS2_PLACEMENT_3D('',#1889,#1890,#1891);
#1889 = CARTESIAN_POINT('',(20.650707289022,16.807658101263,8.4));
#1890 = DIRECTION('',(0.,-0.,-1.));
#1891 = DIRECTION('',(-0.999855601113,-1.699343764352E-02,0.));
#1892 = ADVANCED_FACE('',(#1893),#1897,.T.);
#1893 = FACE_BOUND('',#1894,.T.);
#1894 = EDGE_LOOP('',(#1895,#1896));
#1895 = ORIENTED_EDGE('',*,*,#1873,.T.);
#1896 = ORIENTED_EDGE('',*,*,#1830,.T.);
#1897 = PLANE('',#1898);
#1898 = AXIS2_PLACEMENT_3D('',#1899,#1900,#1901);
#1899 = CARTESIAN_POINT('',(20.650707289022,16.807658101263,8.4));
#1900 = DIRECTION('',(0.,0.,1.));
#1901 = DIRECTION('',(0.999855601113,1.699343764352E-02,0.));
#1902 = ADVANCED_FACE('',(#1903),#1907,.F.);
#1903 = FACE_BOUND('',#1904,.T.);
#1904 = EDGE_LOOP('',(#1905,#1906));
#1905 = ORIENTED_EDGE('',*,*,#1881,.F.);
#1906 = ORIENTED_EDGE('',*,*,#1849,.F.);
#1907 = PLANE('',#1908);
#1908 = AXIS2_PLACEMENT_3D('',#1909,#1910,#1911);
#1909 = CARTESIAN_POINT('',(20.650707289022,16.807658101263,6.9));
#1910 = DIRECTION('',(0.,0.,1.));
#1911 = DIRECTION('',(0.999855601113,1.699343764352E-02,0.));
#1912 = MANIFOLD_SOLID_BREP('',#1913);
#1913 = CLOSED_SHELL('',(#1914,#1986,#2034,#2056,#2086,#2098,#2155,#2179
    ,#2203,#2220,#2232,#2256,#2280,#2297));
#1914 = ADVANCED_FACE('',(#1915),#1981,.F.);
#1915 = FACE_BOUND('',#1916,.T.);
#1916 = EDGE_LOOP('',(#1917,#1927,#1935,#1943,#1951,#1959,#1967,#1975));
#1917 = ORIENTED_EDGE('',*,*,#1918,.F.);
#1918 = EDGE_CURVE('',#1919,#1921,#1923,.T.);
#1919 = VERTEX_POINT('',#1920);
#1920 = CARTESIAN_POINT('',(21.927648131284,1.05,1.59));
#1921 = VERTEX_POINT('',#1922);
#1922 = CARTESIAN_POINT('',(21.927648131284,1.05,1.1));
#1923 = LINE('',#1924,#1925);
#1924 = CARTESIAN_POINT('',(21.927648131284,1.05,1.59));
#1925 = VECTOR('',#1926,1.);
#1926 = DIRECTION('',(0.,0.,-1.));
#1927 = ORIENTED_EDGE('',*,*,#1928,.T.);
#1928 = EDGE_CURVE('',#1919,#1929,#1931,.T.);
#1929 = VERTEX_POINT('',#1930);
#1930 = CARTESIAN_POINT('',(22.707648131284,1.05,1.59));
#1931 = LINE('',#1932,#1933);
#1932 = CARTESIAN_POINT('',(21.927648131284,1.05,1.59));
#1933 = VECTOR('',#1934,1.);
#1934 = DIRECTION('',(1.,-8.304432640125E-17,0.));
#1935 = ORIENTED_EDGE('',*,*,#1936,.T.);
#1936 = EDGE_CURVE('',#1929,#1937,#1939,.T.);
#1937 = VERTEX_POINT('',#1938);
#1938 = CARTESIAN_POINT('',(22.707648131284,1.05,1.1));
#1939 = LINE('',#1940,#1941);
#1940 = CARTESIAN_POINT('',(22.707648131284,1.05,1.59));
#1941 = VECTOR('',#1942,1.);
#1942 = DIRECTION('',(0.,0.,-1.));
#1943 = ORIENTED_EDGE('',*,*,#1944,.T.);
#1944 = EDGE_CURVE('',#1937,#1945,#1947,.T.);
#1945 = VERTEX_POINT('',#1946);
#1946 = CARTESIAN_POINT('',(22.717648131284,1.05,1.1));
#1947 = LINE('',#1948,#1949);
#1948 = CARTESIAN_POINT('',(21.917648131284,1.05,1.1));
#1949 = VECTOR('',#1950,1.);
#1950 = DIRECTION('',(1.,-8.651933336434E-17,0.));
#1951 = ORIENTED_EDGE('',*,*,#1952,.F.);
#1952 = EDGE_CURVE('',#1953,#1945,#1955,.T.);
#1953 = VERTEX_POINT('',#1954);
#1954 = CARTESIAN_POINT('',(22.717648131284,1.05,1.6));
#1955 = LINE('',#1956,#1957);
#1956 = CARTESIAN_POINT('',(22.717648131284,1.05,1.6));
#1957 = VECTOR('',#1958,1.);
#1958 = DIRECTION('',(0.,-0.,-1.));
#1959 = ORIENTED_EDGE('',*,*,#1960,.F.);
#1960 = EDGE_CURVE('',#1961,#1953,#1963,.T.);
#1961 = VERTEX_POINT('',#1962);
#1962 = CARTESIAN_POINT('',(21.917648131284,1.05,1.6));
#1963 = LINE('',#1964,#1965);
#1964 = CARTESIAN_POINT('',(21.917648131284,1.05,1.6));
#1965 = VECTOR('',#1966,1.);
#1966 = DIRECTION('',(1.,-8.651933336434E-17,0.));
#1967 = ORIENTED_EDGE('',*,*,#1968,.T.);
#1968 = EDGE_CURVE('',#1961,#1969,#1971,.T.);
#1969 = VERTEX_POINT('',#1970);
#1970 = CARTESIAN_POINT('',(21.917648131284,1.05,1.1));
#1971 = LINE('',#1972,#1973);
#1972 = CARTESIAN_POINT('',(21.917648131284,1.05,1.6));
#1973 = VECTOR('',#1974,1.);
#1974 = DIRECTION('',(0.,-0.,-1.));
#1975 = ORIENTED_EDGE('',*,*,#1976,.T.);
#1976 = EDGE_CURVE('',#1969,#1921,#1977,.T.);
#1977 = LINE('',#1978,#1979);
#1978 = CARTESIAN_POINT('',(21.917648131284,1.05,1.1));
#1979 = VECTOR('',#1980,1.);
#1980 = DIRECTION('',(1.,-8.651933336434E-17,0.));
#1981 = PLANE('',#1982);
#1982 = AXIS2_PLACEMENT_3D('',#1983,#1984,#1985);
#1983 = CARTESIAN_POINT('',(21.917648131284,1.05,1.6));
#1984 = DIRECTION('',(8.651933336434E-17,1.,0.));
#1985 = DIRECTION('',(-1.,8.651933336434E-17,0.));
#1986 = ADVANCED_FACE('',(#1987),#2029,.F.);
#1987 = FACE_BOUND('',#1988,.T.);
#1988 = EDGE_LOOP('',(#1989,#1999,#2007,#2015,#2023));
#1989 = ORIENTED_EDGE('',*,*,#1990,.F.);
#1990 = EDGE_CURVE('',#1991,#1993,#1995,.T.);
#1991 = VERTEX_POINT('',#1992);
#1992 = CARTESIAN_POINT('',(22.71118366519,2.3,1.593535533906));
#1993 = VERTEX_POINT('',#1994);
#1994 = CARTESIAN_POINT('',(21.917648131284,2.3,1.6));
#1995 = LINE('',#1996,#1997);
#1996 = CARTESIAN_POINT('',(21.917648131284,2.3,1.6));
#1997 = VECTOR('',#1998,1.);
#1998 = DIRECTION('',(-1.,8.651933336434E-17,0.));
#1999 = ORIENTED_EDGE('',*,*,#2000,.T.);
#2000 = EDGE_CURVE('',#1991,#2001,#2003,.T.);
#2001 = VERTEX_POINT('',#2002);
#2002 = CARTESIAN_POINT('',(21.927648131284,2.3,1.59));
#2003 = LINE('',#2004,#2005);
#2004 = CARTESIAN_POINT('',(21.927648131284,2.3,1.59));
#2005 = VECTOR('',#2006,1.);
#2006 = DIRECTION('',(-1.,3.610448834488E-16,0.));
#2007 = ORIENTED_EDGE('',*,*,#2008,.T.);
#2008 = EDGE_CURVE('',#2001,#2009,#2011,.T.);
#2009 = VERTEX_POINT('',#2010);
#2010 = CARTESIAN_POINT('',(21.927648131284,2.3,1.1));
#2011 = LINE('',#2012,#2013);
#2012 = CARTESIAN_POINT('',(21.927648131284,2.3,1.59));
#2013 = VECTOR('',#2014,1.);
#2014 = DIRECTION('',(0.,0.,-1.));
#2015 = ORIENTED_EDGE('',*,*,#2016,.T.);
#2016 = EDGE_CURVE('',#2009,#2017,#2019,.T.);
#2017 = VERTEX_POINT('',#2018);
#2018 = CARTESIAN_POINT('',(21.917648131284,2.3,1.1));
#2019 = LINE('',#2020,#2021);
#2020 = CARTESIAN_POINT('',(21.917648131284,2.3,1.1));
#2021 = VECTOR('',#2022,1.);
#2022 = DIRECTION('',(-1.,8.651933336434E-17,0.));
#2023 = ORIENTED_EDGE('',*,*,#2024,.F.);
#2024 = EDGE_CURVE('',#1993,#2017,#2025,.T.);
#2025 = LINE('',#2026,#2027);
#2026 = CARTESIAN_POINT('',(21.917648131284,2.3,1.6));
#2027 = VECTOR('',#2028,1.);
#2028 = DIRECTION('',(0.,-0.,-1.));
#2029 = PLANE('',#2030);
#2030 = AXIS2_PLACEMENT_3D('',#2031,#2032,#2033);
#2031 = CARTESIAN_POINT('',(21.917648131284,2.3,1.6));
#2032 = DIRECTION('',(-8.651933336434E-17,-1.,0.));
#2033 = DIRECTION('',(1.,-8.651933336434E-17,0.));
#2034 = ADVANCED_FACE('',(#2035),#2051,.F.);
#2035 = FACE_BOUND('',#2036,.T.);
#2036 = EDGE_LOOP('',(#2037,#2043,#2044,#2050));
#2037 = ORIENTED_EDGE('',*,*,#2038,.T.);
#2038 = EDGE_CURVE('',#2017,#1969,#2039,.T.);
#2039 = LINE('',#2040,#2041);
#2040 = CARTESIAN_POINT('',(21.917648131284,1.05,1.1));
#2041 = VECTOR('',#2042,1.);
#2042 = DIRECTION('',(-2.22044604925E-16,-1.,-0.));
#2043 = ORIENTED_EDGE('',*,*,#1968,.F.);
#2044 = ORIENTED_EDGE('',*,*,#2045,.F.);
#2045 = EDGE_CURVE('',#1993,#1961,#2046,.T.);
#2046 = LINE('',#2047,#2048);
#2047 = CARTESIAN_POINT('',(21.917648131284,1.05,1.6));
#2048 = VECTOR('',#2049,1.);
#2049 = DIRECTION('',(-2.22044604925E-16,-1.,-0.));
#2050 = ORIENTED_EDGE('',*,*,#2024,.T.);
#2051 = PLANE('',#2052);
#2052 = AXIS2_PLACEMENT_3D('',#2053,#2054,#2055);
#2053 = CARTESIAN_POINT('',(21.917648131284,1.05,1.6));
#2054 = DIRECTION('',(1.,-2.22044604925E-16,0.));
#2055 = DIRECTION('',(0.,0.,-1.));
#2056 = ADVANCED_FACE('',(#2057),#2081,.F.);
#2057 = FACE_BOUND('',#2058,.T.);
#2058 = EDGE_LOOP('',(#2059,#2067,#2074,#2080));
#2059 = ORIENTED_EDGE('',*,*,#2060,.T.);
#2060 = EDGE_CURVE('',#1945,#2061,#2063,.T.);
#2061 = VERTEX_POINT('',#2062);
#2062 = CARTESIAN_POINT('',(22.712648131284,2.3,1.1));
#2063 = LINE('',#2064,#2065);
#2064 = CARTESIAN_POINT('',(22.717648131284,1.05,1.1));
#2065 = VECTOR('',#2066,1.);
#2066 = DIRECTION('',(2.22044604925E-16,1.,0.));
#2067 = ORIENTED_EDGE('',*,*,#2068,.F.);
#2068 = EDGE_CURVE('',#1991,#2061,#2069,.T.);
#2069 = B_SPLINE_CURVE_WITH_KNOTS('',3,(#2070,#2071,#2072,#2073),
  .UNSPECIFIED.,.F.,.F.,(4,4),(0.,1.),.PIECEWISE_BEZIER_KNOTS.);
#2070 = CARTESIAN_POINT('',(22.71118366519,2.3,1.593535533906));
#2071 = CARTESIAN_POINT('',(22.707648131284,2.3,1.426666666667));
#2072 = CARTESIAN_POINT('',(22.707648131284,2.3,1.263333333333));
#2073 = CARTESIAN_POINT('',(22.712648131284,2.3,1.1));
#2074 = ORIENTED_EDGE('',*,*,#2075,.F.);
#2075 = EDGE_CURVE('',#1953,#1991,#2076,.T.);
#2076 = LINE('',#2077,#2078);
#2077 = CARTESIAN_POINT('',(22.717648131284,1.05,1.6));
#2078 = VECTOR('',#2079,1.);
#2079 = DIRECTION('',(2.22044604925E-16,1.,0.));
#2080 = ORIENTED_EDGE('',*,*,#1952,.T.);
#2081 = PLANE('',#2082);
#2082 = AXIS2_PLACEMENT_3D('',#2083,#2084,#2085);
#2083 = CARTESIAN_POINT('',(22.717648131284,1.05,1.6));
#2084 = DIRECTION('',(-1.,2.22044604925E-16,0.));
#2085 = DIRECTION('',(0.,0.,1.));
#2086 = ADVANCED_FACE('',(#2087),#2093,.T.);
#2087 = FACE_BOUND('',#2088,.T.);
#2088 = EDGE_LOOP('',(#2089,#2090,#2091,#2092));
#2089 = ORIENTED_EDGE('',*,*,#1990,.T.);
#2090 = ORIENTED_EDGE('',*,*,#2045,.T.);
#2091 = ORIENTED_EDGE('',*,*,#1960,.T.);
#2092 = ORIENTED_EDGE('',*,*,#2075,.T.);
#2093 = PLANE('',#2094);
#2094 = AXIS2_PLACEMENT_3D('',#2095,#2096,#2097);
#2095 = CARTESIAN_POINT('',(22.317648131284,1.675,1.6));
#2096 = DIRECTION('',(0.,0.,1.));
#2097 = DIRECTION('',(2.22044604925E-16,1.,0.));
#2098 = ADVANCED_FACE('',(#2099),#2150,.F.);
#2099 = FACE_BOUND('',#2100,.T.);
#2100 = EDGE_LOOP('',(#2101,#2102,#2110,#2118,#2124,#2125,#2126,#2134,
    #2142,#2148,#2149));
#2101 = ORIENTED_EDGE('',*,*,#2016,.F.);
#2102 = ORIENTED_EDGE('',*,*,#2103,.T.);
#2103 = EDGE_CURVE('',#2009,#2104,#2106,.T.);
#2104 = VERTEX_POINT('',#2105);
#2105 = CARTESIAN_POINT('',(21.927648131284,2.55,1.1));
#2106 = LINE('',#2107,#2108);
#2107 = CARTESIAN_POINT('',(21.927648131284,2.3,1.1));
#2108 = VECTOR('',#2109,1.);
#2109 = DIRECTION('',(6.557254739192E-16,1.,0.));
#2110 = ORIENTED_EDGE('',*,*,#2111,.T.);
#2111 = EDGE_CURVE('',#2104,#2112,#2114,.T.);
#2112 = VERTEX_POINT('',#2113);
#2113 = CARTESIAN_POINT('',(22.707648131284,2.55,1.1));
#2114 = LINE('',#2115,#2116);
#2115 = CARTESIAN_POINT('',(21.927648131284,2.55,1.1));
#2116 = VECTOR('',#2117,1.);
#2117 = DIRECTION('',(1.,-3.610448834488E-16,-0.));
#2118 = ORIENTED_EDGE('',*,*,#2119,.T.);
#2119 = EDGE_CURVE('',#2112,#2061,#2120,.T.);
#2120 = LINE('',#2121,#2122);
#2121 = CARTESIAN_POINT('',(22.707648131284,2.3,1.1));
#2122 = VECTOR('',#2123,1.);
#2123 = DIRECTION('',(-4.388850394221E-16,-1.,0.));
#2124 = ORIENTED_EDGE('',*,*,#2060,.F.);
#2125 = ORIENTED_EDGE('',*,*,#1944,.F.);
#2126 = ORIENTED_EDGE('',*,*,#2127,.T.);
#2127 = EDGE_CURVE('',#1937,#2128,#2130,.T.);
#2128 = VERTEX_POINT('',#2129);
#2129 = CARTESIAN_POINT('',(22.707648131284,0.8,1.1));
#2130 = LINE('',#2131,#2132);
#2131 = CARTESIAN_POINT('',(22.707648131284,1.05,1.1));
#2132 = VECTOR('',#2133,1.);
#2133 = DIRECTION('',(-2.22044604925E-16,-1.,0.));
#2134 = ORIENTED_EDGE('',*,*,#2135,.T.);
#2135 = EDGE_CURVE('',#2128,#2136,#2138,.T.);
#2136 = VERTEX_POINT('',#2137);
#2137 = CARTESIAN_POINT('',(21.927648131284,0.8,1.1));
#2138 = LINE('',#2139,#2140);
#2139 = CARTESIAN_POINT('',(21.927648131284,0.8,1.1));
#2140 = VECTOR('',#2141,1.);
#2141 = DIRECTION('',(-1.,3.610448834488E-16,0.));
#2142 = ORIENTED_EDGE('',*,*,#2143,.T.);
#2143 = EDGE_CURVE('',#2136,#1921,#2144,.T.);
#2144 = LINE('',#2145,#2146);
#2145 = CARTESIAN_POINT('',(21.927648131284,1.05,1.1));
#2146 = VECTOR('',#2147,1.);
#2147 = DIRECTION('',(2.22044604925E-16,1.,0.));
#2148 = ORIENTED_EDGE('',*,*,#1976,.F.);
#2149 = ORIENTED_EDGE('',*,*,#2038,.F.);
#2150 = PLANE('',#2151);
#2151 = AXIS2_PLACEMENT_3D('',#2152,#2153,#2154);
#2152 = CARTESIAN_POINT('',(22.317648131284,1.675,1.1));
#2153 = DIRECTION('',(0.,0.,1.));
#2154 = DIRECTION('',(2.22044604925E-16,1.,0.));
#2155 = ADVANCED_FACE('',(#2156),#2174,.T.);
#2156 = FACE_BOUND('',#2157,.T.);
#2157 = EDGE_LOOP('',(#2158,#2159,#2167,#2173));
#2158 = ORIENTED_EDGE('',*,*,#2119,.F.);
#2159 = ORIENTED_EDGE('',*,*,#2160,.F.);
#2160 = EDGE_CURVE('',#2161,#2112,#2163,.T.);
#2161 = VERTEX_POINT('',#2162);
#2162 = CARTESIAN_POINT('',(22.707648131284,2.55,1.59));
#2163 = LINE('',#2164,#2165);
#2164 = CARTESIAN_POINT('',(22.707648131284,2.55,1.59));
#2165 = VECTOR('',#2166,1.);
#2166 = DIRECTION('',(0.,0.,-1.));
#2167 = ORIENTED_EDGE('',*,*,#2168,.T.);
#2168 = EDGE_CURVE('',#2161,#1991,#2169,.T.);
#2169 = LINE('',#2170,#2171);
#2170 = CARTESIAN_POINT('',(22.707648131284,2.3,1.59));
#2171 = VECTOR('',#2172,1.);
#2172 = DIRECTION('',(-4.388850394221E-16,-1.,0.));
#2173 = ORIENTED_EDGE('',*,*,#2068,.T.);
#2174 = PLANE('',#2175);
#2175 = AXIS2_PLACEMENT_3D('',#2176,#2177,#2178);
#2176 = CARTESIAN_POINT('',(22.707648131284,2.3,1.59));
#2177 = DIRECTION('',(1.,-4.388850394221E-16,0.));
#2178 = DIRECTION('',(4.388850394221E-16,1.,0.));
#2179 = ADVANCED_FACE('',(#2180),#2198,.T.);
#2180 = FACE_BOUND('',#2181,.T.);
#2181 = EDGE_LOOP('',(#2182,#2183,#2191,#2197));
#2182 = ORIENTED_EDGE('',*,*,#2111,.F.);
#2183 = ORIENTED_EDGE('',*,*,#2184,.F.);
#2184 = EDGE_CURVE('',#2185,#2104,#2187,.T.);
#2185 = VERTEX_POINT('',#2186);
#2186 = CARTESIAN_POINT('',(21.927648131284,2.55,1.59));
#2187 = LINE('',#2188,#2189);
#2188 = CARTESIAN_POINT('',(21.927648131284,2.55,1.59));
#2189 = VECTOR('',#2190,1.);
#2190 = DIRECTION('',(0.,0.,-1.));
#2191 = ORIENTED_EDGE('',*,*,#2192,.T.);
#2192 = EDGE_CURVE('',#2185,#2161,#2193,.T.);
#2193 = LINE('',#2194,#2195);
#2194 = CARTESIAN_POINT('',(21.927648131284,2.55,1.59));
#2195 = VECTOR('',#2196,1.);
#2196 = DIRECTION('',(1.,-3.610448834488E-16,-0.));
#2197 = ORIENTED_EDGE('',*,*,#2160,.T.);
#2198 = PLANE('',#2199);
#2199 = AXIS2_PLACEMENT_3D('',#2200,#2201,#2202);
#2200 = CARTESIAN_POINT('',(21.927648131284,2.55,1.59));
#2201 = DIRECTION('',(3.610448834488E-16,1.,0.));
#2202 = DIRECTION('',(-1.,3.610448834488E-16,0.));
#2203 = ADVANCED_FACE('',(#2204),#2215,.T.);
#2204 = FACE_BOUND('',#2205,.T.);
#2205 = EDGE_LOOP('',(#2206,#2207,#2208,#2214));
#2206 = ORIENTED_EDGE('',*,*,#2103,.F.);
#2207 = ORIENTED_EDGE('',*,*,#2008,.F.);
#2208 = ORIENTED_EDGE('',*,*,#2209,.T.);
#2209 = EDGE_CURVE('',#2001,#2185,#2210,.T.);
#2210 = LINE('',#2211,#2212);
#2211 = CARTESIAN_POINT('',(21.927648131284,2.3,1.59));
#2212 = VECTOR('',#2213,1.);
#2213 = DIRECTION('',(6.557254739192E-16,1.,0.));
#2214 = ORIENTED_EDGE('',*,*,#2184,.T.);
#2215 = PLANE('',#2216);
#2216 = AXIS2_PLACEMENT_3D('',#2217,#2218,#2219);
#2217 = CARTESIAN_POINT('',(21.927648131284,2.3,1.59));
#2218 = DIRECTION('',(-1.,6.557254739192E-16,0.));
#2219 = DIRECTION('',(-6.557254739192E-16,-1.,0.));
#2220 = ADVANCED_FACE('',(#2221),#2227,.T.);
#2221 = FACE_BOUND('',#2222,.T.);
#2222 = EDGE_LOOP('',(#2223,#2224,#2225,#2226));
#2223 = ORIENTED_EDGE('',*,*,#2000,.F.);
#2224 = ORIENTED_EDGE('',*,*,#2168,.F.);
#2225 = ORIENTED_EDGE('',*,*,#2192,.F.);
#2226 = ORIENTED_EDGE('',*,*,#2209,.F.);
#2227 = PLANE('',#2228);
#2228 = AXIS2_PLACEMENT_3D('',#2229,#2230,#2231);
#2229 = CARTESIAN_POINT('',(22.317648131284,1.675,1.59));
#2230 = DIRECTION('',(0.,0.,1.));
#2231 = DIRECTION('',(2.22044604925E-16,1.,0.));
#2232 = ADVANCED_FACE('',(#2233),#2251,.T.);
#2233 = FACE_BOUND('',#2234,.T.);
#2234 = EDGE_LOOP('',(#2235,#2236,#2244,#2250));
#2235 = ORIENTED_EDGE('',*,*,#2143,.F.);
#2236 = ORIENTED_EDGE('',*,*,#2237,.F.);
#2237 = EDGE_CURVE('',#2238,#2136,#2240,.T.);
#2238 = VERTEX_POINT('',#2239);
#2239 = CARTESIAN_POINT('',(21.927648131284,0.8,1.59));
#2240 = LINE('',#2241,#2242);
#2241 = CARTESIAN_POINT('',(21.927648131284,0.8,1.59));
#2242 = VECTOR('',#2243,1.);
#2243 = DIRECTION('',(0.,0.,-1.));
#2244 = ORIENTED_EDGE('',*,*,#2245,.T.);
#2245 = EDGE_CURVE('',#2238,#1919,#2246,.T.);
#2246 = LINE('',#2247,#2248);
#2247 = CARTESIAN_POINT('',(21.927648131284,1.05,1.59));
#2248 = VECTOR('',#2249,1.);
#2249 = DIRECTION('',(2.22044604925E-16,1.,0.));
#2250 = ORIENTED_EDGE('',*,*,#1918,.T.);
#2251 = PLANE('',#2252);
#2252 = AXIS2_PLACEMENT_3D('',#2253,#2254,#2255);
#2253 = CARTESIAN_POINT('',(21.927648131284,1.05,1.59));
#2254 = DIRECTION('',(-1.,2.22044604925E-16,0.));
#2255 = DIRECTION('',(0.,0.,1.));
#2256 = ADVANCED_FACE('',(#2257),#2275,.T.);
#2257 = FACE_BOUND('',#2258,.T.);
#2258 = EDGE_LOOP('',(#2259,#2260,#2268,#2274));
#2259 = ORIENTED_EDGE('',*,*,#2135,.F.);
#2260 = ORIENTED_EDGE('',*,*,#2261,.F.);
#2261 = EDGE_CURVE('',#2262,#2128,#2264,.T.);
#2262 = VERTEX_POINT('',#2263);
#2263 = CARTESIAN_POINT('',(22.707648131284,0.8,1.59));
#2264 = LINE('',#2265,#2266);
#2265 = CARTESIAN_POINT('',(22.707648131284,0.8,1.59));
#2266 = VECTOR('',#2267,1.);
#2267 = DIRECTION('',(0.,0.,-1.));
#2268 = ORIENTED_EDGE('',*,*,#2269,.T.);
#2269 = EDGE_CURVE('',#2262,#2238,#2270,.T.);
#2270 = LINE('',#2271,#2272);
#2271 = CARTESIAN_POINT('',(21.927648131284,0.8,1.59));
#2272 = VECTOR('',#2273,1.);
#2273 = DIRECTION('',(-1.,3.610448834488E-16,0.));
#2274 = ORIENTED_EDGE('',*,*,#2237,.T.);
#2275 = PLANE('',#2276);
#2276 = AXIS2_PLACEMENT_3D('',#2277,#2278,#2279);
#2277 = CARTESIAN_POINT('',(21.927648131284,0.8,1.59));
#2278 = DIRECTION('',(-3.610448834488E-16,-1.,0.));
#2279 = DIRECTION('',(1.,-3.610448834488E-16,0.));
#2280 = ADVANCED_FACE('',(#2281),#2292,.T.);
#2281 = FACE_BOUND('',#2282,.T.);
#2282 = EDGE_LOOP('',(#2283,#2284,#2285,#2291));
#2283 = ORIENTED_EDGE('',*,*,#2127,.F.);
#2284 = ORIENTED_EDGE('',*,*,#1936,.F.);
#2285 = ORIENTED_EDGE('',*,*,#2286,.T.);
#2286 = EDGE_CURVE('',#1929,#2262,#2287,.T.);
#2287 = LINE('',#2288,#2289);
#2288 = CARTESIAN_POINT('',(22.707648131284,1.05,1.59));
#2289 = VECTOR('',#2290,1.);
#2290 = DIRECTION('',(-2.22044604925E-16,-1.,0.));
#2291 = ORIENTED_EDGE('',*,*,#2261,.T.);
#2292 = PLANE('',#2293);
#2293 = AXIS2_PLACEMENT_3D('',#2294,#2295,#2296);
#2294 = CARTESIAN_POINT('',(22.707648131284,1.05,1.59));
#2295 = DIRECTION('',(1.,-2.22044604925E-16,0.));
#2296 = DIRECTION('',(0.,0.,-1.));
#2297 = ADVANCED_FACE('',(#2298),#2304,.F.);
#2298 = FACE_BOUND('',#2299,.T.);
#2299 = EDGE_LOOP('',(#2300,#2301,#2302,#2303));
#2300 = ORIENTED_EDGE('',*,*,#1928,.F.);
#2301 = ORIENTED_EDGE('',*,*,#2245,.F.);
#2302 = ORIENTED_EDGE('',*,*,#2269,.F.);
#2303 = ORIENTED_EDGE('',*,*,#2286,.F.);
#2304 = PLANE('',#2305);
#2305 = AXIS2_PLACEMENT_3D('',#2306,#2307,#2308);
#2306 = CARTESIAN_POINT('',(22.317648131284,1.675,1.59));
#2307 = DIRECTION('',(-0.,0.,-1.));
#2308 = DIRECTION('',(-2.22044604925E-16,-1.,0.));
#2309 = ( GEOMETRIC_REPRESENTATION_CONTEXT(3) 
GLOBAL_UNCERTAINTY_ASSIGNED_CONTEXT((#2313)) 
GLOBAL_UNIT_ASSIGNED_CONTEXT((#2310,#2311,#2312)) REPRESENTATION_CONTEXT
('Context #1','3D Context with UNIT and UNCERTAINTY') );
#2310 = ( LENGTH_UNIT() NAMED_UNIT(*) SI_UNIT(.MILLI.,.METRE.) );
#2311 = ( NAMED_UNIT(*) PLANE_ANGLE_UNIT() SI_UNIT($,.RADIAN.) );
#2312 = ( NAMED_UNIT(*) SI_UNIT($,.STERADIAN.) SOLID_ANGLE_UNIT() );
#2313 = UNCERTAINTY_MEASURE_WITH_UNIT(LENGTH_MEASURE(2.E-04),#2310,
  'distance_accuracy_value','confusion accuracy');
#2314 = PRODUCT_RELATED_PRODUCT_CATEGORY('part',$,(#7));
ENDSEC;
END-ISO-10303-21;
